<svg version="1.1" viewBox="0.0 0.0 960.0 540.0" fill="none" stroke="none" stroke-linecap="square" stroke-miterlimit="10" xmlns:xlink="http://www.w3.org/1999/xlink" xmlns="http://www.w3.org/2000/svg"><clipPath id="g3baa0994f5e_0_8.0"><path d="m0 0l960.0 0l0 540.0l-960.0 0l0 -540.0z" clip-rule="nonzero"/></clipPath><g clip-path="url(#g3baa0994f5e_0_8.0)"><path fill="#ffffff" d="m0 0l960.0 0l0 540.0l-960.0 0z" fill-rule="evenodd"/><path fill="#eeeeee" d="m139.38058 415.52267l0 0c0 -9.663025 7.8334045 -17.49643 17.496399 -17.49643l133.82608 0c4.6403503 0 9.090607 1.8433533 12.371826 5.1245728c3.2812195 3.2812195 5.1245728 7.7315063 5.1245728 12.371857l0 69.98355c0 9.662994 -7.8334045 17.496399 -17.496399 17.496399l-133.82608 0c-9.662994 0 -17.496399 -7.8334045 -17.496399 -17.496399z" fill-rule="evenodd"/><path stroke="#595959" stroke-width="1.0" stroke-linejoin="round" stroke-linecap="butt" d="m139.38058 415.52267l0 0c0 -9.663025 7.8334045 -17.49643 17.496399 -17.49643l133.82608 0c4.6403503 0 9.090607 1.8433533 12.371826 5.1245728c3.2812195 3.2812195 5.1245728 7.7315063 5.1245728 12.371857l0 69.98355c0 9.662994 -7.8334045 17.496399 -17.496399 17.496399l-133.82608 0c-9.662994 0 -17.496399 -7.8334045 -17.496399 -17.496399z" fill-rule="evenodd"/><path fill="#000000" d="m179.50656 446.43442l0 -13.359375l1.78125 0l0 6.625l6.625 -6.625l2.390625 0l-5.59375 5.421875l5.84375 7.9375l-2.328125 0l-4.765625 -6.765625l-2.171875 2.140625l0 4.625l-1.78125 0zm18.631073 -1.1875q-0.921875 0.765625 -1.765625 1.09375q-0.828125 0.3125 -1.796875 0.3125q-1.59375 0 -2.453125 -0.78125q-0.859375 -0.78125 -0.859375 -1.984375q0 -0.71875 0.328125 -1.296875q0.328125 -0.59375 0.84375 -0.9375q0.53125 -0.359375 1.1875 -0.546875q0.46875 -0.125 1.453125 -0.25q1.984375 -0.234375 2.921875 -0.5625q0.015625 -0.34375 0.015625 -0.421875q0 -1.0 -0.46875 -1.421875q-0.625 -0.546875 -1.875 -0.546875q-1.15625 0 -1.703125 0.40625q-0.546875 0.40625 -0.8125 1.421875l-1.609375 -0.21875q0.21875 -1.015625 0.71875 -1.640625q0.5 -0.640625 1.453125 -0.984375q0.953125 -0.34375 2.1875 -0.34375q1.25 0 2.015625 0.296875q0.78125 0.28125 1.140625 0.734375q0.375 0.4375 0.515625 1.109375q0.078125 0.421875 0.078125 1.515625l0 2.1875q0 2.28125 0.109375 2.890625q0.109375 0.59375 0.40625 1.15625l-1.703125 0q-0.265625 -0.515625 -0.328125 -1.1875zm-0.140625 -3.671875q-0.890625 0.375 -2.671875 0.625q-1.015625 0.140625 -1.4375 0.328125q-0.421875 0.1875 -0.65625 0.53125q-0.21875 0.34375 -0.21875 0.78125q0 0.65625 0.5 1.09375q0.5 0.4375 1.453125 0.4375q0.9375 0 1.671875 -0.40625q0.75 -0.421875 1.09375 -1.140625q0.265625 -0.5625 0.265625 -1.640625l0 -0.609375zm7.781967 3.390625l0.234375 1.453125q-0.6875 0.140625 -1.234375 0.140625q-0.890625 0 -1.390625 -0.28125q-0.484375 -0.28125 -0.6875 -0.734375q-0.203125 -0.46875 -0.203125 -1.9375l0 -5.578125l-1.203125 0l0 -1.265625l1.203125 0l0 -2.390625l1.625 -0.984375l0 3.375l1.65625 0l0 1.265625l-1.65625 0l0 5.671875q0 0.6875 0.078125 0.890625q0.09375 0.203125 0.28125 0.328125q0.203125 0.109375 0.578125 0.109375q0.265625 0 0.71875 -0.0625zm7.917679 0.28125q-0.921875 0.765625 -1.765625 1.09375q-0.828125 0.3125 -1.796875 0.3125q-1.59375 0 -2.453125 -0.78125q-0.859375 -0.78125 -0.859375 -1.984375q0 -0.71875 0.328125 -1.296875q0.328125 -0.59375 0.84375 -0.9375q0.53125 -0.359375 1.1875 -0.546875q0.46875 -0.125 1.453125 -0.25q1.984375 -0.234375 2.921875 -0.5625q0.015625 -0.34375 0.015625 -0.421875q0 -1.0 -0.46875 -1.421875q-0.625 -0.546875 -1.875 -0.546875q-1.15625 0 -1.703125 0.40625q-0.546875 0.40625 -0.8125 1.421875l-1.609375 -0.21875q0.21875 -1.015625 0.71875 -1.640625q0.5 -0.640625 1.453125 -0.984375q0.953125 -0.34375 2.1875 -0.34375q1.25 0 2.015625 0.296875q0.78125 0.28125 1.140625 0.734375q0.375 0.4375 0.515625 1.109375q0.078125 0.421875 0.078125 1.515625l0 2.1875q0 2.28125 0.109375 2.890625q0.109375 0.59375 0.40625 1.15625l-1.703125 0q-0.265625 -0.515625 -0.328125 -1.1875zm-0.140625 -3.671875q-0.890625 0.375 -2.671875 0.625q-1.015625 0.140625 -1.4375 0.328125q-0.421875 0.1875 -0.65625 0.53125q-0.21875 0.34375 -0.21875 0.78125q0 0.65625 0.5 1.09375q0.5 0.4375 1.453125 0.4375q0.9375 0 1.671875 -0.40625q0.75 -0.421875 1.09375 -1.140625q0.265625 -0.5625 0.265625 -1.640625l0 -0.609375zm7.091568 4.859375l5.125 -13.359375l1.90625 0l5.46875 13.359375l-2.015625 0l-1.546875 -4.046875l-5.59375 0l-1.46875 4.046875l-1.875 0zm3.859375 -5.484375l4.53125 0l-1.40625 -3.703125q-0.625 -1.6875 -0.9375 -2.765625q-0.265625 1.28125 -0.71875 2.546875l-1.46875 3.921875zm9.537323 6.28125l1.59375 0.234375q0.109375 0.75 0.5625 1.078125q0.609375 0.453125 1.671875 0.453125q1.140625 0 1.75 -0.453125q0.625 -0.453125 0.84375 -1.265625q0.125 -0.5 0.109375 -2.109375q-1.0625 1.265625 -2.671875 1.265625q-2.0 0 -3.09375 -1.4375q-1.09375 -1.4375 -1.09375 -3.453125q0 -1.390625 0.5 -2.5625q0.515625 -1.171875 1.453125 -1.796875q0.953125 -0.640625 2.25 -0.640625q1.703125 0 2.8125 1.375l0 -1.15625l1.515625 0l0 8.359375q0 2.265625 -0.46875 3.203125q-0.453125 0.9375 -1.453125 1.484375q-0.984375 0.546875 -2.453125 0.546875q-1.71875 0 -2.796875 -0.78125q-1.0625 -0.765625 -1.03125 -2.34375zm1.359375 -5.8125q0 1.90625 0.75 2.78125q0.765625 0.875 1.90625 0.875q1.125 0 1.890625 -0.859375q0.765625 -0.875 0.765625 -2.734375q0 -1.78125 -0.796875 -2.671875q-0.78125 -0.90625 -1.890625 -0.90625q-1.09375 0 -1.859375 0.890625q-0.765625 0.875 -0.765625 2.625zm15.953842 1.90625l1.6875 0.203125q-0.40625 1.484375 -1.484375 2.3125q-1.078125 0.8125 -2.765625 0.8125q-2.125 0 -3.375 -1.296875q-1.234375 -1.3125 -1.234375 -3.671875q0 -2.453125 1.25 -3.796875q1.265625 -1.34375 3.265625 -1.34375q1.9375 0 3.15625 1.328125q1.234375 1.3125 1.234375 3.703125q0 0.15625 0 0.4375l-7.21875 0q0.09375 1.59375 0.90625 2.453125q0.8125 0.84375 2.015625 0.84375q0.90625 0 1.546875 -0.46875q0.640625 -0.484375 1.015625 -1.515625zm-5.390625 -2.65625l5.40625 0q-0.109375 -1.21875 -0.625 -1.828125q-0.78125 -0.953125 -2.03125 -0.953125q-1.125 0 -1.90625 0.765625q-0.765625 0.75 -0.84375 2.015625zm9.141342 5.765625l0 -9.671875l1.4687347 0l0 1.375q1.0625 -1.59375 3.078125 -1.59375q0.875 0 1.609375 0.3125q0.734375 0.3125 1.09375 0.828125q0.375 0.5 0.515625 1.203125q0.09375 0.453125 0.09375 1.59375l0 5.953125l-1.640625 0l0 -5.890625q0 -1.0 -0.203125 -1.484375q-0.1875 -0.5 -0.671875 -0.796875q-0.484375 -0.296875 -1.140625 -0.296875q-1.046875 0 -1.8125 0.671875q-0.75 0.65625 -0.75 2.515625l0 5.28125l-1.6406097 0zm13.953842 -1.46875l0.234375 1.453125q-0.6875 0.140625 -1.234375 0.140625q-0.890625 0 -1.390625 -0.28125q-0.484375 -0.28125 -0.6875 -0.734375q-0.203125 -0.46875 -0.203125 -1.9375l0 -5.578125l-1.203125 0l0 -1.265625l1.203125 0l0 -2.390625l1.625 -0.984375l0 3.375l1.65625 0l0 1.265625l-1.65625 0l0 5.671875q0 0.6875 0.078125 0.890625q0.09375 0.203125 0.28125 0.328125q0.203125 0.109375 0.578125 0.109375q0.265625 0 0.71875 -0.0625z" fill-rule="nonzero"/><path fill="#000000" d="m175.98773 458.76254l2.390625 0l0 1.421875q0.46875 -0.734375 1.25 -1.1875q0.796875 -0.453125 1.765625 -0.453125q1.6875 0 2.859375 1.328125q1.171875 1.3125 1.171875 3.671875q0 2.421875 -1.1875 3.765625q-1.1875 1.34375 -2.859375 1.34375q-0.8125 0 -1.46875 -0.3125q-0.640625 -0.328125 -1.359375 -1.09375l0 4.875l-2.5625 0l0 -13.359375zm2.53125 4.671875q0 1.625 0.640625 2.40625q0.65625 0.78125 1.578125 0.78125q0.90625 0 1.484375 -0.71875q0.59375 -0.71875 0.59375 -2.34375q0 -1.515625 -0.609375 -2.25q-0.609375 -0.75 -1.515625 -0.75q-0.9375 0 -1.5625 0.734375q-0.609375 0.71875 -0.609375 2.140625zm8.349106 0.03125q0 -1.28125 0.625 -2.46875q0.625 -1.203125 1.78125 -1.828125q1.15625 -0.625 2.578125 -0.625q2.1875 0 3.59375 1.421875q1.40625 1.421875 1.40625 3.609375q0 2.1875 -1.421875 3.640625q-1.421875 1.4375 -3.5625 1.4375q-1.328125 0 -2.546875 -0.59375q-1.203125 -0.609375 -1.828125 -1.765625q-0.625 -1.171875 -0.625 -2.828125zm2.625 0.125q0 1.453125 0.671875 2.21875q0.6875 0.75 1.6875 0.75q1.0 0 1.671875 -0.75q0.6875 -0.765625 0.6875 -2.234375q0 -1.421875 -0.6875 -2.1875q-0.671875 -0.765625 -1.671875 -0.765625q-1.0 0 -1.6875 0.765625q-0.671875 0.765625 -0.671875 2.203125zm9.364731 4.84375l0 -13.359375l2.5625 0l0 13.359375l-2.5625 0zm5.183304 -10.984375l0 -2.375l2.5625 0l0 2.375l-2.5625 0zm0 10.984375l0 -9.671875l2.5625 0l0 9.671875l-2.5625 0zm13.620804 -6.8125l-2.53125 0.453125q-0.125 -0.75 -0.578125 -1.125q-0.453125 -0.390625 -1.171875 -0.390625q-0.953125 0 -1.53125 0.65625q-0.5625 0.65625 -0.5625 2.203125q0 1.734375 0.578125 2.4375q0.578125 0.703125 1.546875 0.703125q0.734375 0 1.203125 -0.40625q0.46875 -0.421875 0.65625 -1.421875l2.515625 0.421875q-0.390625 1.734375 -1.515625 2.625q-1.109375 0.875 -2.96875 0.875q-2.125 0 -3.390625 -1.328125q-1.25 -1.34375 -1.25 -3.71875q0 -2.390625 1.265625 -3.71875q1.265625 -1.34375 3.421875 -1.34375q1.765625 0 2.796875 0.765625q1.046875 0.75 1.515625 2.3125zm0.71946716 -2.859375l2.71875 0l2.328125 6.859375l2.25 -6.859375l2.65625 0l-3.421875 9.3125l-0.609375 1.6875q-0.328125 0.84375 -0.640625 1.28125q-0.3125 0.453125 -0.703125 0.71875q-0.390625 0.28125 -0.96875 0.4375q-0.578125 0.15625 -1.3125 0.15625q-0.734375 0 -1.453125 -0.15625l-0.21875 -2.0q0.59375 0.125 1.078125 0.125q0.890625 0 1.3125 -0.53125q0.4375 -0.515625 0.671875 -1.328125l-3.6875 -9.703125zm10.209045 9.671875l0 -2.5625l2.5625 0l0 2.5625l-2.5625 0zm7.636429 0l-2.5625 0l0 -9.671875l2.375 0l0 1.375q0.609375 -0.984375 1.09375 -1.28125q0.484375 -0.3125 1.109375 -0.3125q0.875 0 1.6875 0.484375l-0.796875 2.234375q-0.640625 -0.421875 -1.203125 -0.421875q-0.53125 0 -0.90625 0.296875q-0.375 0.296875 -0.59375 1.078125q-0.203125 0.765625 -0.203125 3.234375l0 2.984375zm10.400894 -3.078125l2.546875 0.421875q-0.484375 1.40625 -1.546875 2.140625q-1.0625 0.734375 -2.65625 0.734375q-2.515625 0 -3.734375 -1.65625q-0.953125 -1.3125 -0.953125 -3.328125q0 -2.40625 1.25 -3.765625q1.265625 -1.359375 3.1875 -1.359375q2.15625 0 3.40625 1.421875q1.25 1.421875 1.1875 4.375l-6.40625 0q0.03125 1.140625 0.609375 1.78125q0.59375 0.625 1.484375 0.625q0.59375 0 1.0 -0.328125q0.421875 -0.328125 0.625 -1.0625zm0.15625 -2.59375q-0.03125 -1.109375 -0.578125 -1.6875q-0.546875 -0.578125 -1.328125 -0.578125q-0.84375 0 -1.390625 0.609375q-0.546875 0.609375 -0.53125 1.65625l3.828125 0zm4.391342 6.3125l2.921875 0.359375q0.0625 0.5 0.328125 0.6875q0.375 0.28125 1.15625 0.28125q1.0 0 1.5 -0.296875q0.328125 -0.203125 0.515625 -0.65625q0.109375 -0.3125 0.109375 -1.171875l0 -1.40625q-1.140625 1.5625 -2.890625 1.5625q-1.953125 0 -3.09375 -1.65625q-0.890625 -1.296875 -0.890625 -3.234375q0 -2.4375 1.171875 -3.71875q1.171875 -1.28125 2.90625 -1.28125q1.796875 0 2.96875 1.578125l0 -1.359375l2.390625 0l0 8.671875q0 1.71875 -0.28125 2.5625q-0.28125 0.84375 -0.796875 1.328125q-0.5 0.484375 -1.359375 0.75q-0.84375 0.28125 -2.15625 0.28125q-2.453125 0 -3.484375 -0.84375q-1.03125 -0.84375 -1.03125 -2.125q0 -0.140625 0.015625 -0.3125zm2.28125 -5.671875q0 1.53125 0.59375 2.25q0.59375 0.71875 1.46875 0.71875q0.9375 0 1.578125 -0.734375q0.65625 -0.734375 0.65625 -2.171875q0 -1.515625 -0.625 -2.234375q-0.609375 -0.734375 -1.5625 -0.734375q-0.921875 0 -1.515625 0.71875q-0.59375 0.71875 -0.59375 2.1875zm8.755371 0.0625q0 -1.28125 0.625 -2.46875q0.625 -1.203125 1.78125 -1.828125q1.15625 -0.625 2.578125 -0.625q2.1875 0 3.59375 1.421875q1.40625 1.421875 1.40625 3.609375q0 2.1875 -1.421875 3.640625q-1.421875 1.4375 -3.5625 1.4375q-1.328125 0 -2.546875 -0.59375q-1.203125 -0.609375 -1.828125 -1.765625q-0.625 -1.171875 -0.625 -2.828125zm2.625 0.125q0 1.453125 0.671875 2.21875q0.6875 0.75 1.6875 0.75q1.0 0 1.671875 -0.75q0.6875 -0.765625 0.6875 -2.234375q0 -1.421875 -0.6875 -2.1875q-0.671875 -0.765625 -1.671875 -0.765625q-1.0 0 -1.6875 0.765625q-0.671875 0.765625 -0.671875 2.203125z" fill-rule="nonzero"/><path fill="#eeeeee" d="m393.07086 261.06598l0 0c0 -9.66301 7.8334045 -17.49643 17.49643 -17.49643l133.82608 0c4.64032 0 9.090576 1.8433685 12.371826 5.124588c3.281189 3.2812042 5.1245728 7.731491 5.1245728 12.371841l0 69.98355c0 9.662994 -7.833435 17.496399 -17.496399 17.496399l-133.82608 0c-9.663025 0 -17.49643 -7.8334045 -17.49643 -17.496399z" fill-rule="evenodd"/><path stroke="#595959" stroke-width="1.0" stroke-linejoin="round" stroke-linecap="butt" d="m393.07086 261.06598l0 0c0 -9.66301 7.8334045 -17.49643 17.49643 -17.49643l133.82608 0c4.64032 0 9.090576 1.8433685 12.371826 5.124588c3.281189 3.2812042 5.1245728 7.731491 5.1245728 12.371841l0 69.98355c0 9.662994 -7.833435 17.496399 -17.496399 17.496399l-133.82608 0c-9.663025 0 -17.49643 -7.8334045 -17.49643 -17.496399z" fill-rule="evenodd"/><path fill="#000000" d="m417.6603 291.97775l0 -13.359375l1.78125 0l0 6.625l6.625 -6.625l2.390625 0l-5.59375 5.421875l5.84375 7.9375l-2.328125 0l-4.765625 -6.765625l-2.171875 2.140625l0 4.625l-1.78125 0zm12.443573 0l0 -13.359375l5.015625 0q1.53125 0 2.453125 0.40625q0.921875 0.40625 1.4375 1.25q0.53125 0.84375 0.53125 1.765625q0 0.859375 -0.46875 1.625q-0.453125 0.75 -1.390625 1.203125q1.203125 0.359375 1.859375 1.21875q0.65625 0.859375 0.65625 2.015625q0 0.9375 -0.40625 1.75q-0.390625 0.796875 -0.984375 1.234375q-0.578125 0.4375 -1.453125 0.671875q-0.875 0.21875 -2.15625 0.21875l-5.09375 0zm1.78125 -7.75l2.875 0q1.1875 0 1.6875 -0.140625q0.671875 -0.203125 1.015625 -0.671875q0.34375 -0.46875 0.34375 -1.171875q0 -0.65625 -0.328125 -1.15625q-0.3125 -0.515625 -0.90625 -0.703125q-0.59375 -0.1875 -2.03125 -0.1875l-2.65625 0l0 4.03125zm0 6.171875l3.3125 0q0.859375 0 1.203125 -0.0625q0.609375 -0.109375 1.015625 -0.359375q0.421875 -0.265625 0.6875 -0.75q0.265625 -0.484375 0.265625 -1.125q0 -0.75 -0.390625 -1.296875q-0.375 -0.546875 -1.0625 -0.765625q-0.671875 -0.234375 -1.953125 -0.234375l-3.078125 0l0 4.59375zm10.146698 -2.71875l1.65625 -0.140625q0.125 1.0 0.546875 1.640625q0.4375 0.640625 1.34375 1.046875q0.921875 0.390625 2.0625 0.390625q1.0 0 1.78125 -0.296875q0.78125 -0.296875 1.15625 -0.8125q0.375 -0.53125 0.375 -1.15625q0 -0.625 -0.375 -1.09375q-0.359375 -0.46875 -1.1875 -0.796875q-0.546875 -0.203125 -2.390625 -0.640625q-1.828125 -0.453125 -2.5625 -0.84375q-0.96875 -0.5 -1.4375 -1.234375q-0.46875 -0.75 -0.46875 -1.671875q0 -1.0 0.578125 -1.875q0.578125 -0.890625 1.671875 -1.34375q1.109375 -0.453125 2.453125 -0.453125q1.484375 0 2.609375 0.484375q1.140625 0.46875 1.75 1.40625q0.609375 0.921875 0.65625 2.09375l-1.6875 0.125q-0.140625 -1.265625 -0.9375 -1.90625q-0.78125 -0.65625 -2.3125 -0.65625q-1.609375 0 -2.34375 0.59375q-0.734375 0.59375 -0.734375 1.421875q0 0.71875 0.53125 1.171875q0.5 0.46875 2.65625 0.96875q2.15625 0.484375 2.953125 0.84375q1.171875 0.53125 1.71875 1.359375q0.5625 0.828125 0.5625 1.90625q0 1.0625 -0.609375 2.015625q-0.609375 0.9375 -1.75 1.46875q-1.140625 0.515625 -2.578125 0.515625q-1.8125 0 -3.046875 -0.53125q-1.21875 -0.53125 -1.921875 -1.59375q-0.6875 -1.0625 -0.71875 -2.40625zm18.251892 4.296875l0 -13.359375l5.921875 0q1.78125 0 2.703125 0.359375q0.9375 0.359375 1.484375 1.28125q0.5625 0.90625 0.5625 2.015625q0 1.40625 -0.921875 2.390625q-0.921875 0.96875 -2.84375 1.234375q0.703125 0.34375 1.078125 0.671875q0.765625 0.703125 1.453125 1.765625l2.328125 3.640625l-2.21875 0l-1.765625 -2.78125q-0.78125 -1.203125 -1.28125 -1.828125q-0.5 -0.640625 -0.90625 -0.890625q-0.390625 -0.265625 -0.796875 -0.359375q-0.296875 -0.078125 -0.984375 -0.078125l-2.046875 0l0 5.9375l-1.765625 0zm1.765625 -7.453125l3.796875 0q1.21875 0 1.890625 -0.25q0.6875 -0.265625 1.046875 -0.8125q0.359375 -0.546875 0.359375 -1.1875q0 -0.953125 -0.6875 -1.5625q-0.6875 -0.609375 -2.1875 -0.609375l-4.21875 0l0 4.421875zm18.09793 4.34375l1.6875 0.203125q-0.40625 1.484375 -1.484375 2.3125q-1.078125 0.8125 -2.765625 0.8125q-2.125 0 -3.375 -1.296875q-1.234375 -1.3125 -1.234375 -3.671875q0 -2.453125 1.25 -3.796875q1.265625 -1.34375 3.265625 -1.34375q1.9375 0 3.15625 1.328125q1.234375 1.3125 1.234375 3.703125q0 0.15625 0 0.4375l-7.21875 0q0.09375 1.59375 0.90625 2.453125q0.8125 0.84375 2.015625 0.84375q0.90625 0 1.546875 -0.46875q0.640625 -0.484375 1.015625 -1.515625zm-5.390625 -2.65625l5.40625 0q-0.109375 -1.21875 -0.625 -1.828125q-0.78125 -0.953125 -2.03125 -0.953125q-1.125 0 -1.90625 0.765625q-0.765625 0.75 -0.84375 2.015625zm8.485107 2.875l1.625 -0.25q0.125 0.96875 0.75 1.5q0.625 0.515625 1.75 0.515625q1.125 0 1.671875 -0.453125q0.546875 -0.46875 0.546875 -1.09375q0 -0.546875 -0.484375 -0.875q-0.328125 -0.21875 -1.671875 -0.546875q-1.8125 -0.46875 -2.515625 -0.796875q-0.6875 -0.328125 -1.046875 -0.90625q-0.359375 -0.59375 -0.359375 -1.3125q0 -0.640625 0.296875 -1.1875q0.296875 -0.5625 0.8125 -0.921875q0.375 -0.28125 1.03125 -0.46875q0.671875 -0.203125 1.421875 -0.203125q1.140625 0 2.0 0.328125q0.859375 0.328125 1.265625 0.890625q0.421875 0.5625 0.578125 1.5l-1.609375 0.21875q-0.109375 -0.75 -0.640625 -1.171875q-0.515625 -0.421875 -1.46875 -0.421875q-1.140625 0 -1.625 0.375q-0.46875 0.375 -0.46875 0.875q0 0.3125 0.1875 0.578125q0.203125 0.265625 0.640625 0.4375q0.234375 0.09375 1.4375 0.421875q1.75 0.453125 2.4375 0.75q0.6875 0.296875 1.078125 0.859375q0.390625 0.5625 0.390625 1.40625q0 0.828125 -0.484375 1.546875q-0.46875 0.71875 -1.375 1.125q-0.90625 0.390625 -2.046875 0.390625q-1.875 0 -2.875 -0.78125q-0.984375 -0.78125 -1.25 -2.328125zm9.375 -1.953125q0 -2.6875 1.484375 -3.96875q1.25 -1.078125 3.046875 -1.078125q2.0 0 3.265625 1.3125q1.265625 1.296875 1.265625 3.609375q0 1.859375 -0.5625 2.9375q-0.5625 1.0625 -1.640625 1.65625q-1.0625 0.59375 -2.328125 0.59375q-2.03125 0 -3.28125 -1.296875q-1.25 -1.3125 -1.25 -3.765625zm1.6875 0q0 1.859375 0.796875 2.796875q0.8125 0.921875 2.046875 0.921875q1.21875 0 2.03125 -0.921875q0.8125 -0.9375 0.8125 -2.84375q0 -1.796875 -0.8125 -2.71875q-0.8125 -0.921875 -2.03125 -0.921875q-1.234375 0 -2.046875 0.921875q-0.796875 0.90625 -0.796875 2.765625zm15.625702 4.84375l0 -1.421875q-1.125 1.640625 -3.0625 1.640625q-0.859375 0 -1.609375 -0.328125q-0.734375 -0.328125 -1.09375 -0.828125q-0.359375 -0.5 -0.5 -1.21875q-0.109375 -0.46875 -0.109375 -1.53125l0 -5.984375l1.640625 0l0 5.359375q0 1.28125 0.109375 1.734375q0.15625 0.640625 0.65625 1.015625q0.5 0.375 1.234375 0.375q0.734375 0 1.375 -0.375q0.65625 -0.390625 0.921875 -1.03125q0.265625 -0.65625 0.265625 -1.890625l0 -5.1875l1.640625 0l0 9.671875l-1.46875 0zm4.031952 0l0 -9.671875l1.46875 0l0 1.46875q0.5625 -1.03125 1.03125 -1.359375q0.484375 -0.328125 1.0625 -0.328125q0.828125 0 1.6875 0.53125l-0.5625 1.515625q-0.609375 -0.359375 -1.203125 -0.359375q-0.546875 0 -0.96875 0.328125q-0.421875 0.328125 -0.609375 0.890625q-0.28125 0.875 -0.28125 1.921875l0 5.0625l-1.625 0zm12.5408325 -3.546875l1.609375 0.21875q-0.265625 1.65625 -1.359375 2.609375q-1.078125 0.9375 -2.671875 0.9375q-1.984375 0 -3.1875 -1.296875q-1.203125 -1.296875 -1.203125 -3.71875q0 -1.578125 0.515625 -2.75q0.515625 -1.171875 1.578125 -1.75q1.0625 -0.59375 2.3125 -0.59375q1.578125 0 2.578125 0.796875q1.0 0.796875 1.28125 2.265625l-1.59375 0.234375q-0.234375 -0.96875 -0.8125 -1.453125q-0.578125 -0.5 -1.390625 -0.5q-1.234375 0 -2.015625 0.890625q-0.78125 0.890625 -0.78125 2.8125q0 1.953125 0.75 2.84375q0.75 0.875 1.953125 0.875q0.96875 0 1.609375 -0.59375q0.65625 -0.59375 0.828125 -1.828125zm9.640625 0.4375l1.6875 0.203125q-0.40625 1.484375 -1.484375 2.3125q-1.078125 0.8125 -2.765625 0.8125q-2.125 0 -3.375 -1.296875q-1.234375 -1.3125 -1.234375 -3.671875q0 -2.453125 1.25 -3.796875q1.265625 -1.34375 3.265625 -1.34375q1.9375 0 3.15625 1.328125q1.234375 1.3125 1.234375 3.703125q0 0.15625 0 0.4375l-7.21875 0q0.09375 1.59375 0.90625 2.453125q0.8125 0.84375 2.015625 0.84375q0.90625 0 1.546875 -0.46875q0.640625 -0.484375 1.015625 -1.515625zm-5.390625 -2.65625l5.40625 0q-0.109375 -1.21875 -0.625 -1.828125q-0.78125 -0.953125 -2.03125 -0.953125q-1.125 0 -1.90625 0.765625q-0.765625 0.75 -0.84375 2.015625z" fill-rule="nonzero"/><path fill="#000000" d="m429.67804 304.30588l2.390625 0l0 1.421875q0.46875 -0.734375 1.25 -1.1875q0.796875 -0.453125 1.765625 -0.453125q1.6875 0 2.859375 1.328125q1.171875 1.3125 1.171875 3.671875q0 2.421875 -1.1875 3.765625q-1.1875 1.34375 -2.859375 1.34375q-0.8125 0 -1.46875 -0.3125q-0.640625 -0.328125 -1.359375 -1.09375l0 4.875l-2.5625 0l0 -13.359375zm2.53125 4.671875q0 1.625 0.640625 2.40625q0.65625 0.78125 1.578125 0.78125q0.90625 0 1.484375 -0.71875q0.59375 -0.71875 0.59375 -2.34375q0 -1.515625 -0.609375 -2.25q-0.609375 -0.75 -1.515625 -0.75q-0.9375 0 -1.5625 0.734375q-0.609375 0.71875 -0.609375 2.140625zm8.349091 0.03125q0 -1.28125 0.625 -2.46875q0.625 -1.203125 1.78125 -1.828125q1.15625 -0.625 2.578125 -0.625q2.1875 0 3.59375 1.421875q1.40625 1.421875 1.40625 3.609375q0 2.1875 -1.421875 3.640625q-1.421875 1.4375 -3.5625 1.4375q-1.328125 0 -2.546875 -0.59375q-1.203125 -0.609375 -1.828125 -1.765625q-0.625 -1.171875 -0.625 -2.828125zm2.625 0.125q0 1.453125 0.671875 2.21875q0.6875 0.75 1.6875 0.75q1.0 0 1.671875 -0.75q0.6875 -0.765625 0.6875 -2.234375q0 -1.421875 -0.6875 -2.1875q-0.671875 -0.765625 -1.671875 -0.765625q-1.0 0 -1.6875 0.765625q-0.671875 0.765625 -0.671875 2.203125zm9.364746 4.84375l0 -13.359375l2.5625 0l0 13.359375l-2.5625 0zm5.1832886 -10.984375l0 -2.375l2.5625 0l0 2.375l-2.5625 0zm0 10.984375l0 -9.671875l2.5625 0l0 9.671875l-2.5625 0zm13.620819 -6.8125l-2.53125 0.453125q-0.125 -0.75 -0.578125 -1.125q-0.453125 -0.390625 -1.171875 -0.390625q-0.953125 0 -1.53125 0.65625q-0.5625 0.65625 -0.5625 2.203125q0 1.734375 0.578125 2.4375q0.578125 0.703125 1.546875 0.703125q0.734375 0 1.203125 -0.40625q0.46875 -0.421875 0.65625 -1.421875l2.515625 0.421875q-0.390625 1.734375 -1.515625 2.625q-1.109375 0.875 -2.96875 0.875q-2.125 0 -3.390625 -1.328125q-1.25 -1.34375 -1.25 -3.71875q0 -2.390625 1.265625 -3.71875q1.265625 -1.34375 3.421875 -1.34375q1.765625 0 2.796875 0.765625q1.046875 0.75 1.515625 2.3125zm0.7194519 -2.859375l2.71875 0l2.328125 6.859375l2.25 -6.859375l2.65625 0l-3.421875 9.3125l-0.609375 1.6875q-0.328125 0.84375 -0.640625 1.28125q-0.3125 0.453125 -0.703125 0.71875q-0.390625 0.28125 -0.96875 0.4375q-0.578125 0.15625 -1.3125 0.15625q-0.734375 0 -1.453125 -0.15625l-0.21875 -2.0q0.59375 0.125 1.078125 0.125q0.890625 0 1.3125 -0.53125q0.4375 -0.515625 0.671875 -1.328125l-3.6875 -9.703125zm10.209045 9.671875l0 -2.5625l2.5625 0l0 2.5625l-2.5625 0zm7.636444 0l-2.5625 0l0 -9.671875l2.375 0l0 1.375q0.609375 -0.984375 1.09375 -1.28125q0.484375 -0.3125 1.109375 -0.3125q0.875 0 1.6875 0.484375l-0.796875 2.234375q-0.640625 -0.421875 -1.203125 -0.421875q-0.53125 0 -0.90625 0.296875q-0.375 0.296875 -0.59375 1.078125q-0.203125 0.765625 -0.203125 3.234375l0 2.984375zm10.400879 -3.078125l2.546875 0.421875q-0.484375 1.40625 -1.546875 2.140625q-1.0625 0.734375 -2.65625 0.734375q-2.515625 0 -3.734375 -1.65625q-0.953125 -1.3125 -0.953125 -3.328125q0 -2.40625 1.25 -3.765625q1.265625 -1.359375 3.1875 -1.359375q2.15625 0 3.40625 1.421875q1.25 1.421875 1.1875 4.375l-6.40625 0q0.03125 1.140625 0.609375 1.78125q0.59375 0.625 1.484375 0.625q0.59375 0 1.0 -0.328125q0.421875 -0.328125 0.625 -1.0625zm0.15625 -2.59375q-0.03125 -1.109375 -0.578125 -1.6875q-0.546875 -0.578125 -1.328125 -0.578125q-0.84375 0 -1.390625 0.609375q-0.546875 0.609375 -0.53125 1.65625l3.828125 0zm4.3913574 6.3125l2.921875 0.359375q0.0625 0.5 0.328125 0.6875q0.375 0.28125 1.15625 0.28125q1.0 0 1.5 -0.296875q0.328125 -0.203125 0.515625 -0.65625q0.109375 -0.3125 0.109375 -1.171875l0 -1.40625q-1.140625 1.5625 -2.890625 1.5625q-1.953125 0 -3.09375 -1.65625q-0.890625 -1.296875 -0.890625 -3.234375q0 -2.4375 1.171875 -3.71875q1.171875 -1.28125 2.90625 -1.28125q1.796875 0 2.96875 1.578125l0 -1.359375l2.390625 0l0 8.671875q0 1.71875 -0.28125 2.5625q-0.28125 0.84375 -0.796875 1.328125q-0.5 0.484375 -1.359375 0.75q-0.84375 0.28125 -2.15625 0.28125q-2.453125 0 -3.484375 -0.84375q-1.03125 -0.84375 -1.03125 -2.125q0 -0.140625 0.015625 -0.3125zm2.28125 -5.671875q0 1.53125 0.59375 2.25q0.59375 0.71875 1.46875 0.71875q0.9375 0 1.578125 -0.734375q0.65625 -0.734375 0.65625 -2.171875q0 -1.515625 -0.625 -2.234375q-0.609375 -0.734375 -1.5625 -0.734375q-0.921875 0 -1.515625 0.71875q-0.59375 0.71875 -0.59375 2.1875zm8.755371 0.0625q0 -1.28125 0.625 -2.46875q0.625 -1.203125 1.78125 -1.828125q1.15625 -0.625 2.578125 -0.625q2.1875 0 3.59375 1.421875q1.40625 1.421875 1.40625 3.609375q0 2.1875 -1.421875 3.640625q-1.421875 1.4375 -3.5625 1.4375q-1.328125 0 -2.546875 -0.59375q-1.203125 -0.609375 -1.828125 -1.765625q-0.625 -1.171875 -0.625 -2.828125zm2.625 0.125q0 1.453125 0.671875 2.21875q0.6875 0.75 1.6875 0.75q1.0 0 1.671875 -0.75q0.6875 -0.765625 0.6875 -2.234375q0 -1.421875 -0.6875 -2.1875q-0.671875 -0.765625 -1.671875 -0.765625q-1.0 0 -1.6875 0.765625q-0.671875 0.765625 -0.671875 2.203125z" fill-rule="nonzero"/><path fill="#eeeeee" d="m651.80054 261.06598l0 0c0 -9.66301 7.833374 -17.49643 17.496399 -17.49643l133.82605 0c4.640381 0 9.090637 1.8433685 12.371826 5.124588c3.28125 3.2812042 5.124634 7.731491 5.124634 12.371841l0 69.98355c0 9.662994 -7.833435 17.496399 -17.49646 17.496399l-133.82605 0c-9.663025 0 -17.496399 -7.8334045 -17.496399 -17.496399z" fill-rule="evenodd"/><path stroke="#595959" stroke-width="1.0" stroke-linejoin="round" stroke-linecap="butt" d="m651.80054 261.06598l0 0c0 -9.66301 7.833374 -17.49643 17.496399 -17.49643l133.82605 0c4.640381 0 9.090637 1.8433685 12.371826 5.124588c3.28125 3.2812042 5.124634 7.731491 5.124634 12.371841l0 69.98355c0 9.662994 -7.833435 17.496399 -17.49646 17.496399l-133.82605 0c-9.663025 0 -17.496399 -7.8334045 -17.496399 -17.496399z" fill-rule="evenodd"/><path fill="#000000" d="m692.1024 280.97775l5.125 -13.359375l1.90625 0l5.46875 13.359375l-2.015625 0l-1.546875 -4.046875l-5.59375 0l-1.46875 4.046875l-1.875 0zm3.859375 -5.484375l4.53125 0l-1.40625 -3.703125q-0.625 -1.6875 -0.9375 -2.765625q-0.265625 1.28125 -0.71875 2.546875l-1.46875 3.921875zm13.4279785 4.015625l0.234375 1.453125q-0.6875 0.140625 -1.234375 0.140625q-0.890625 0 -1.390625 -0.28125q-0.484375 -0.28125 -0.6875 -0.734375q-0.203125 -0.46875 -0.203125 -1.9375l0 -5.578125l-1.203125 0l0 -1.265625l1.203125 0l0 -2.390625l1.625 -0.984375l0 3.375l1.65625 0l0 1.265625l-1.65625 0l0 5.671875q0 0.6875 0.078125 0.890625q0.09375 0.203125 0.28125 0.328125q0.203125 0.109375 0.578125 0.109375q0.265625 0 0.71875 -0.0625zm5.1832886 0l0.234375 1.453125q-0.6875 0.140625 -1.234375 0.140625q-0.890625 0 -1.390625 -0.28125q-0.484375 -0.28125 -0.6875 -0.734375q-0.203125 -0.46875 -0.203125 -1.9375l0 -5.578125l-1.203125 0l0 -1.265625l1.203125 0l0 -2.390625l1.625 -0.984375l0 3.375l1.65625 0l0 1.265625l-1.65625 0l0 5.671875q0 0.6875 0.078125 0.890625q0.09375 0.203125 0.28125 0.328125q0.203125 0.109375 0.578125 0.109375q0.265625 0 0.71875 -0.0625zm8.230164 -1.640625l1.6875 0.203125q-0.40625 1.484375 -1.484375 2.3125q-1.078125 0.8125 -2.765625 0.8125q-2.125 0 -3.375 -1.296875q-1.234375 -1.3125 -1.234375 -3.671875q0 -2.453125 1.25 -3.796875q1.265625 -1.34375 3.265625 -1.34375q1.9375 0 3.15625 1.328125q1.234375 1.3125 1.234375 3.703125q0 0.15625 0 0.4375l-7.21875 0q0.09375 1.59375 0.90625 2.453125q0.8125 0.84375 2.015625 0.84375q0.90625 0 1.546875 -0.46875q0.640625 -0.484375 1.015625 -1.515625zm-5.390625 -2.65625l5.40625 0q-0.109375 -1.21875 -0.625 -1.828125q-0.78125 -0.953125 -2.03125 -0.953125q-1.125 0 -1.90625 0.765625q-0.765625 0.75 -0.84375 2.015625zm8.485107 2.875l1.625 -0.25q0.125 0.96875 0.75 1.5q0.625 0.515625 1.75 0.515625q1.125 0 1.671875 -0.453125q0.546875 -0.46875 0.546875 -1.09375q0 -0.546875 -0.484375 -0.875q-0.328125 -0.21875 -1.671875 -0.546875q-1.8125 -0.46875 -2.515625 -0.796875q-0.6875 -0.328125 -1.046875 -0.90625q-0.359375 -0.59375 -0.359375 -1.3125q0 -0.640625 0.296875 -1.1875q0.296875 -0.5625 0.8125 -0.921875q0.375 -0.28125 1.03125 -0.46875q0.671875 -0.203125 1.421875 -0.203125q1.140625 0 2.0 0.328125q0.859375 0.328125 1.265625 0.890625q0.421875 0.5625 0.578125 1.5l-1.609375 0.21875q-0.109375 -0.75 -0.640625 -1.171875q-0.515625 -0.421875 -1.46875 -0.421875q-1.140625 0 -1.625 0.375q-0.46875 0.375 -0.46875 0.875q0 0.3125 0.1875 0.578125q0.203125 0.265625 0.640625 0.4375q0.234375 0.09375 1.4375 0.421875q1.75 0.453125 2.4375 0.75q0.6875 0.296875 1.078125 0.859375q0.390625 0.5625 0.390625 1.40625q0 0.828125 -0.484375 1.546875q-0.46875 0.71875 -1.375 1.125q-0.90625 0.390625 -2.046875 0.390625q-1.875 0 -2.875 -0.78125q-0.984375 -0.78125 -1.25 -2.328125zm13.5625 1.421875l0.234375 1.453125q-0.6875 0.140625 -1.234375 0.140625q-0.890625 0 -1.390625 -0.28125q-0.484375 -0.28125 -0.6875 -0.734375q-0.203125 -0.46875 -0.203125 -1.9375l0 -5.578125l-1.203125 0l0 -1.265625l1.203125 0l0 -2.390625l1.625 -0.984375l0 3.375l1.65625 0l0 1.265625l-1.65625 0l0 5.671875q0 0.6875 0.078125 0.890625q0.09375 0.203125 0.28125 0.328125q0.203125 0.109375 0.578125 0.109375q0.265625 0 0.71875 -0.0625zm7.9176636 0.28125q-0.921875 0.765625 -1.765625 1.09375q-0.828125 0.3125 -1.796875 0.3125q-1.59375 0 -2.453125 -0.78125q-0.859375 -0.78125 -0.859375 -1.984375q0 -0.71875 0.328125 -1.296875q0.328125 -0.59375 0.84375 -0.9375q0.53125 -0.359375 1.1875 -0.546875q0.46875 -0.125 1.453125 -0.25q1.984375 -0.234375 2.921875 -0.5625q0.015625 -0.34375 0.015625 -0.421875q0 -1.0 -0.46875 -1.421875q-0.625 -0.546875 -1.875 -0.546875q-1.15625 0 -1.703125 0.40625q-0.546875 0.40625 -0.8125 1.421875l-1.609375 -0.21875q0.21875 -1.015625 0.71875 -1.640625q0.5 -0.640625 1.453125 -0.984375q0.953125 -0.34375 2.1875 -0.34375q1.25 0 2.015625 0.296875q0.78125 0.28125 1.140625 0.734375q0.375 0.4375 0.515625 1.109375q0.078125 0.421875 0.078125 1.515625l0 2.1875q0 2.28125 0.109375 2.890625q0.109375 0.59375 0.40625 1.15625l-1.703125 0q-0.265625 -0.515625 -0.328125 -1.1875zm-0.140625 -3.671875q-0.890625 0.375 -2.671875 0.625q-1.015625 0.140625 -1.4375 0.328125q-0.421875 0.1875 -0.65625 0.53125q-0.21875 0.34375 -0.21875 0.78125q0 0.65625 0.5 1.09375q0.5 0.4375 1.453125 0.4375q0.9375 0 1.671875 -0.40625q0.75 -0.421875 1.09375 -1.140625q0.265625 -0.5625 0.265625 -1.640625l0 -0.609375zm7.7819824 3.390625l0.234375 1.453125q-0.6875 0.140625 -1.234375 0.140625q-0.890625 0 -1.390625 -0.28125q-0.484375 -0.28125 -0.6875 -0.734375q-0.203125 -0.46875 -0.203125 -1.9375l0 -5.578125l-1.203125 0l0 -1.265625l1.203125 0l0 -2.390625l1.625 -0.984375l0 3.375l1.65625 0l0 1.265625l-1.65625 0l0 5.671875q0 0.6875 0.078125 0.890625q0.09375 0.203125 0.28125 0.328125q0.203125 0.109375 0.578125 0.109375q0.265625 0 0.71875 -0.0625zm1.6051636 -10.0l0 -1.890625l1.640625 0l0 1.890625l-1.640625 0zm0 11.46875l0 -9.671875l1.640625 0l0 9.671875l-1.640625 0zm3.5354614 -4.84375q0 -2.6875 1.484375 -3.96875q1.25 -1.078125 3.046875 -1.078125q2.0 0 3.265625 1.3125q1.265625 1.296875 1.265625 3.609375q0 1.859375 -0.5625 2.9375q-0.5625 1.0625 -1.640625 1.65625q-1.0625 0.59375 -2.328125 0.59375q-2.03125 0 -3.28125 -1.296875q-1.25 -1.3125 -1.25 -3.765625zm1.6875 0q0 1.859375 0.796875 2.796875q0.8125 0.921875 2.046875 0.921875q1.21875 0 2.03125 -0.921875q0.8125 -0.9375 0.8125 -2.84375q0 -1.796875 -0.8125 -2.71875q-0.8125 -0.921875 -2.03125 -0.921875q-1.234375 0 -2.046875 0.921875q-0.796875 0.90625 -0.796875 2.765625zm9.297607 4.84375l0 -9.671875l1.46875 0l0 1.375q1.0625 -1.59375 3.078125 -1.59375q0.875 0 1.609375 0.3125q0.734375 0.3125 1.09375 0.828125q0.375 0.5 0.515625 1.203125q0.09375 0.453125 0.09375 1.59375l0 5.953125l-1.640625 0l0 -5.890625q0 -1.0 -0.203125 -1.484375q-0.1875 -0.5 -0.671875 -0.796875q-0.484375 -0.296875 -1.140625 -0.296875q-1.046875 0 -1.8125 0.671875q-0.75 0.65625 -0.75 2.515625l0 5.28125l-1.640625 0z" fill-rule="nonzero"/><path fill="#000000" d="m705.94934 298.68088l1.65625 -0.140625q0.125 1.0 0.546875 1.640625q0.4375 0.640625 1.34375 1.046875q0.921875 0.390625 2.0625 0.390625q1.0 0 1.78125 -0.296875q0.78125 -0.296875 1.15625 -0.8125q0.375 -0.53125 0.375 -1.15625q0 -0.625 -0.375 -1.09375q-0.359375 -0.46875 -1.1875 -0.796875q-0.546875 -0.203125 -2.390625 -0.640625q-1.828125 -0.453125 -2.5625 -0.84375q-0.96875 -0.5 -1.4375 -1.234375q-0.46875 -0.75 -0.46875 -1.671875q0 -1.0 0.578125 -1.875q0.578125 -0.890625 1.671875 -1.34375q1.109375 -0.453125 2.453125 -0.453125q1.484375 0 2.609375 0.484375q1.140625 0.46875 1.75 1.40625q0.609375 0.921875 0.65625 2.09375l-1.6875 0.125q-0.140625 -1.265625 -0.9375 -1.90625q-0.78125 -0.65625 -2.3125 -0.65625q-1.609375 0 -2.34375 0.59375q-0.734375 0.59375 -0.734375 1.421875q0 0.71875 0.53125 1.171875q0.5 0.46875 2.65625 0.96875q2.15625 0.484375 2.953125 0.84375q1.171875 0.53125 1.71875 1.359375q0.5625 0.828125 0.5625 1.90625q0 1.0625 -0.609375 2.015625q-0.609375 0.9375 -1.75 1.46875q-1.140625 0.515625 -2.578125 0.515625q-1.8125 0 -3.046875 -0.53125q-1.21875 -0.53125 -1.921875 -1.59375q-0.6875 -1.0625 -0.71875 -2.40625zm19.459229 1.1875l1.6875 0.203125q-0.40625 1.484375 -1.484375 2.3125q-1.078125 0.8125 -2.765625 0.8125q-2.125 0 -3.375 -1.296875q-1.234375 -1.3125 -1.234375 -3.671875q0 -2.453125 1.25 -3.796875q1.265625 -1.34375 3.265625 -1.34375q1.9375 0 3.15625 1.328125q1.234375 1.3125 1.234375 3.703125q0 0.15625 0 0.4375l-7.21875 0q0.09375 1.59375 0.90625 2.453125q0.8125 0.84375 2.015625 0.84375q0.90625 0 1.546875 -0.46875q0.640625 -0.484375 1.015625 -1.515625zm-5.390625 -2.65625l5.40625 0q-0.109375 -1.21875 -0.625 -1.828125q-0.78125 -0.953125 -2.03125 -0.953125q-1.125 0 -1.90625 0.765625q-0.765625 0.75 -0.84375 2.015625zm9.125671 5.765625l0 -9.671875l1.46875 0l0 1.46875q0.5625 -1.03125 1.03125 -1.359375q0.484375 -0.328125 1.0625 -0.328125q0.828125 0 1.6875 0.53125l-0.5625 1.515625q-0.609375 -0.359375 -1.203125 -0.359375q-0.546875 0 -0.96875 0.328125q-0.421875 0.328125 -0.609375 0.890625q-0.28125 0.875 -0.28125 1.921875l0 5.0625l-1.625 0zm8.9158325 0l-3.6875 -9.671875l1.734375 0l2.078125 5.796875q0.328125 0.9375 0.625 1.9375q0.203125 -0.765625 0.609375 -1.828125l2.140625 -5.90625l1.6875 0l-3.65625 9.671875l-1.53125 0zm6.640625 -11.46875l0 -1.890625l1.640625 0l0 1.890625l-1.640625 0zm0 11.46875l0 -9.671875l1.640625 0l0 9.671875l-1.640625 0zm10.457336 -3.546875l1.609375 0.21875q-0.265625 1.65625 -1.359375 2.609375q-1.078125 0.9375 -2.671875 0.9375q-1.984375 0 -3.1875 -1.296875q-1.203125 -1.296875 -1.203125 -3.71875q0 -1.578125 0.515625 -2.75q0.515625 -1.171875 1.578125 -1.75q1.0625 -0.59375 2.3125 -0.59375q1.578125 0 2.578125 0.796875q1.0 0.796875 1.28125 2.265625l-1.59375 0.234375q-0.234375 -0.96875 -0.8125 -1.453125q-0.578125 -0.5 -1.390625 -0.5q-1.234375 0 -2.015625 0.890625q-0.78125 0.890625 -0.78125 2.8125q0 1.953125 0.75 2.84375q0.75 0.875 1.953125 0.875q0.96875 0 1.609375 -0.59375q0.65625 -0.59375 0.828125 -1.828125zm9.640625 0.4375l1.6875 0.203125q-0.40625 1.484375 -1.484375 2.3125q-1.078125 0.8125 -2.765625 0.8125q-2.125 0 -3.375 -1.296875q-1.234375 -1.3125 -1.234375 -3.671875q0 -2.453125 1.25 -3.796875q1.265625 -1.34375 3.265625 -1.34375q1.9375 0 3.15625 1.328125q1.234375 1.3125 1.234375 3.703125q0 0.15625 0 0.4375l-7.21875 0q0.09375 1.59375 0.90625 2.453125q0.8125 0.84375 2.015625 0.84375q0.90625 0 1.546875 -0.46875q0.640625 -0.484375 1.015625 -1.515625zm-5.390625 -2.65625l5.40625 0q-0.109375 -1.21875 -0.625 -1.828125q-0.78125 -0.953125 -2.03125 -0.953125q-1.125 0 -1.90625 0.765625q-0.765625 0.75 -0.84375 2.015625z" fill-rule="nonzero"/><path fill="#000000" d="m688.4077 315.30588l2.390625 0l0 1.421875q0.46875 -0.734375 1.25 -1.1875q0.796875 -0.453125 1.765625 -0.453125q1.6875 0 2.859375 1.328125q1.171875 1.3125 1.171875 3.671875q0 2.421875 -1.1875 3.765625q-1.1875 1.34375 -2.859375 1.34375q-0.8125 0 -1.46875 -0.3125q-0.640625 -0.328125 -1.359375 -1.09375l0 4.875l-2.5625 0l0 -13.359375zm2.53125 4.671875q0 1.625 0.640625 2.40625q0.65625 0.78125 1.578125 0.78125q0.90625 0 1.484375 -0.71875q0.59375 -0.71875 0.59375 -2.34375q0 -1.515625 -0.609375 -2.25q-0.609375 -0.75 -1.515625 -0.75q-0.9375 0 -1.5625 0.734375q-0.609375 0.71875 -0.609375 2.140625zm8.34906 0.03125q0 -1.28125 0.625 -2.46875q0.625 -1.203125 1.78125 -1.828125q1.15625 -0.625 2.578125 -0.625q2.1875 0 3.59375 1.421875q1.40625 1.421875 1.40625 3.609375q0 2.1875 -1.421875 3.640625q-1.421875 1.4375 -3.5625 1.4375q-1.328125 0 -2.546875 -0.59375q-1.203125 -0.609375 -1.828125 -1.765625q-0.625 -1.171875 -0.625 -2.828125zm2.625 0.125q0 1.453125 0.671875 2.21875q0.6875 0.75 1.6875 0.75q1.0 0 1.671875 -0.75q0.6875 -0.765625 0.6875 -2.234375q0 -1.421875 -0.6875 -2.1875q-0.671875 -0.765625 -1.671875 -0.765625q-1.0 0 -1.6875 0.765625q-0.671875 0.765625 -0.671875 2.203125zm9.364746 4.84375l0 -13.359375l2.5625 0l0 13.359375l-2.5625 0zm5.1832886 -10.984375l0 -2.375l2.5625 0l0 2.375l-2.5625 0zm0 10.984375l0 -9.671875l2.5625 0l0 9.671875l-2.5625 0zm13.62085 -6.8125l-2.53125 0.453125q-0.125 -0.75 -0.578125 -1.125q-0.453125 -0.390625 -1.171875 -0.390625q-0.953125 0 -1.53125 0.65625q-0.5625 0.65625 -0.5625 2.203125q0 1.734375 0.578125 2.4375q0.578125 0.703125 1.546875 0.703125q0.734375 0 1.203125 -0.40625q0.46875 -0.421875 0.65625 -1.421875l2.515625 0.421875q-0.390625 1.734375 -1.515625 2.625q-1.109375 0.875 -2.96875 0.875q-2.125 0 -3.390625 -1.328125q-1.25 -1.34375 -1.25 -3.71875q0 -2.390625 1.265625 -3.71875q1.265625 -1.34375 3.421875 -1.34375q1.765625 0 2.796875 0.765625q1.046875 0.75 1.515625 2.3125zm0.7194214 -2.859375l2.71875 0l2.328125 6.859375l2.25 -6.859375l2.65625 0l-3.421875 9.3125l-0.609375 1.6875q-0.328125 0.84375 -0.640625 1.28125q-0.3125 0.453125 -0.703125 0.71875q-0.390625 0.28125 -0.96875 0.4375q-0.578125 0.15625 -1.3125 0.15625q-0.734375 0 -1.453125 -0.15625l-0.21875 -2.0q0.59375 0.125 1.078125 0.125q0.890625 0 1.3125 -0.53125q0.4375 -0.515625 0.671875 -1.328125l-3.6875 -9.703125zm10.209045 9.671875l0 -2.5625l2.5625 0l0 2.5625l-2.5625 0zm7.6364746 0l-2.5625 0l0 -9.671875l2.375 0l0 1.375q0.609375 -0.984375 1.09375 -1.28125q0.484375 -0.3125 1.109375 -0.3125q0.875 0 1.6875 0.484375l-0.796875 2.234375q-0.640625 -0.421875 -1.203125 -0.421875q-0.53125 0 -0.90625 0.296875q-0.375 0.296875 -0.59375 1.078125q-0.203125 0.765625 -0.203125 3.234375l0 2.984375zm10.400879 -3.078125l2.546875 0.421875q-0.484375 1.40625 -1.546875 2.140625q-1.0625 0.734375 -2.65625 0.734375q-2.515625 0 -3.734375 -1.65625q-0.953125 -1.3125 -0.953125 -3.328125q0 -2.40625 1.25 -3.765625q1.265625 -1.359375 3.1875 -1.359375q2.15625 0 3.40625 1.421875q1.25 1.421875 1.1875 4.375l-6.40625 0q0.03125 1.140625 0.609375 1.78125q0.59375 0.625 1.484375 0.625q0.59375 0 1.0 -0.328125q0.421875 -0.328125 0.625 -1.0625zm0.15625 -2.59375q-0.03125 -1.109375 -0.578125 -1.6875q-0.546875 -0.578125 -1.328125 -0.578125q-0.84375 0 -1.390625 0.609375q-0.546875 0.609375 -0.53125 1.65625l3.828125 0zm4.3913574 6.3125l2.921875 0.359375q0.0625 0.5 0.328125 0.6875q0.375 0.28125 1.15625 0.28125q1.0 0 1.5 -0.296875q0.328125 -0.203125 0.515625 -0.65625q0.109375 -0.3125 0.109375 -1.171875l0 -1.40625q-1.140625 1.5625 -2.890625 1.5625q-1.953125 0 -3.09375 -1.65625q-0.890625 -1.296875 -0.890625 -3.234375q0 -2.4375 1.171875 -3.71875q1.171875 -1.28125 2.90625 -1.28125q1.796875 0 2.96875 1.578125l0 -1.359375l2.390625 0l0 8.671875q0 1.71875 -0.28125 2.5625q-0.28125 0.84375 -0.796875 1.328125q-0.5 0.484375 -1.359375 0.75q-0.84375 0.28125 -2.15625 0.28125q-2.453125 0 -3.484375 -0.84375q-1.03125 -0.84375 -1.03125 -2.125q0 -0.140625 0.015625 -0.3125zm2.28125 -5.671875q0 1.53125 0.59375 2.25q0.59375 0.71875 1.46875 0.71875q0.9375 0 1.578125 -0.734375q0.65625 -0.734375 0.65625 -2.171875q0 -1.515625 -0.625 -2.234375q-0.609375 -0.734375 -1.5625 -0.734375q-0.921875 0 -1.515625 0.71875q-0.59375 0.71875 -0.59375 2.1875zm8.75531 0.0625q0 -1.28125 0.625 -2.46875q0.625 -1.203125 1.78125 -1.828125q1.15625 -0.625 2.578125 -0.625q2.1875 0 3.59375 1.421875q1.40625 1.421875 1.40625 3.609375q0 2.1875 -1.421875 3.640625q-1.421875 1.4375 -3.5625 1.4375q-1.328125 0 -2.546875 -0.59375q-1.203125 -0.609375 -1.828125 -1.765625q-0.625 -1.171875 -0.625 -2.828125zm2.625 0.125q0 1.453125 0.671875 2.21875q0.6875 0.75 1.6875 0.75q1.0 0 1.671875 -0.75q0.6875 -0.765625 0.6875 -2.234375q0 -1.421875 -0.6875 -2.1875q-0.671875 -0.765625 -1.671875 -0.765625q-1.0 0 -1.6875 0.765625q-0.671875 0.765625 -0.671875 2.203125z" fill-rule="nonzero"/><path fill="#eeeeee" d="m139.38058 261.06598l0 0c0 -9.66301 7.8334045 -17.49643 17.496399 -17.49643l133.82608 0c4.6403503 0 9.090607 1.8433685 12.371826 5.124588c3.2812195 3.2812042 5.1245728 7.731491 5.1245728 12.371841l0 69.98355c0 9.662994 -7.8334045 17.496399 -17.496399 17.496399l-133.82608 0c-9.662994 0 -17.496399 -7.8334045 -17.496399 -17.496399z" fill-rule="evenodd"/><path stroke="#595959" stroke-width="1.0" stroke-linejoin="round" stroke-linecap="butt" d="m139.38058 261.06598l0 0c0 -9.66301 7.8334045 -17.49643 17.496399 -17.49643l133.82608 0c4.6403503 0 9.090607 1.8433685 12.371826 5.124588c3.2812195 3.2812042 5.1245728 7.731491 5.1245728 12.371841l0 69.98355c0 9.662994 -7.8334045 17.496399 -17.496399 17.496399l-133.82608 0c-9.662994 0 -17.496399 -7.8334045 -17.496399 -17.496399z" fill-rule="evenodd"/><path fill="#000000" d="m174.73087 291.509l0 -1.890625l1.640625 0l0 1.890625l-1.640625 0zm0 11.46875l0 -9.671875l1.640625 0l0 9.671875l-1.640625 0zm4.144821 0l0 -9.671875l1.46875 0l0 1.375q1.0625 -1.59375 3.078125 -1.59375q0.875 0 1.609375 0.3125q0.734375 0.3125 1.09375 0.828125q0.375 0.5 0.515625 1.203125q0.09375 0.453125 0.09375 1.59375l0 5.953125l-1.640625 0l0 -5.890625q0 -1.0 -0.203125 -1.484375q-0.1875 -0.5 -0.671875 -0.796875q-0.484375 -0.296875 -1.140625 -0.296875q-1.046875 0 -1.8125 0.671875q-0.75 0.65625 -0.75 2.515625l0 5.28125l-1.640625 0zm10.375717 -11.46875l0 -1.890625l1.640625 0l0 1.890625l-1.640625 0zm0 11.46875l0 -9.671875l1.640625 0l0 9.671875l-1.640625 0zm7.722946 -1.46875l0.234375 1.453125q-0.6875 0.140625 -1.234375 0.140625q-0.890625 0 -1.390625 -0.28125q-0.484375 -0.28125 -0.6875 -0.734375q-0.203125 -0.46875 -0.203125 -1.9375l0 -5.578125l-1.203125 0l0 -1.265625l1.203125 0l0 -2.390625l1.625 -0.984375l0 3.375l1.65625 0l0 1.265625l-1.65625 0l0 5.671875q0 0.6875 0.078125 0.890625q0.09375 0.203125 0.28125 0.328125q0.203125 0.109375 0.578125 0.109375q0.265625 0 0.71875 -0.0625zm7.870804 1.46875l0 -1.21875q-0.90625 1.4375 -2.703125 1.4375q-1.15625 0 -2.125 -0.640625q-0.96875 -0.640625 -1.5 -1.78125q-0.53125 -1.140625 -0.53125 -2.625q0 -1.453125 0.484375 -2.625q0.484375 -1.1875 1.4375 -1.8125q0.96875 -0.625 2.171875 -0.625q0.875 0 1.546875 0.375q0.6875 0.359375 1.109375 0.953125l0 -4.796875l1.640625 0l0 13.359375l-1.53125 0zm-5.171875 -4.828125q0 1.859375 0.78125 2.78125q0.78125 0.921875 1.84375 0.921875q1.078125 0 1.828125 -0.875q0.75 -0.890625 0.75 -2.6875q0 -1.984375 -0.765625 -2.90625q-0.765625 -0.9375 -1.890625 -0.9375q-1.078125 0 -1.8125 0.890625q-0.734375 0.890625 -0.734375 2.8125zm15.594467 3.640625q-0.921875 0.765625 -1.765625 1.09375q-0.828125 0.3125 -1.796875 0.3125q-1.59375 0 -2.453125 -0.78125q-0.859375 -0.78125 -0.859375 -1.984375q0 -0.71875 0.328125 -1.296875q0.328125 -0.59375 0.84375 -0.9375q0.53125 -0.359375 1.1875 -0.546875q0.46875 -0.125 1.453125 -0.25q1.984375 -0.234375 2.921875 -0.5625q0.015625 -0.34375 0.015625 -0.421875q0 -1.0 -0.46875 -1.421875q-0.625 -0.546875 -1.875 -0.546875q-1.15625 0 -1.703125 0.40625q-0.546875 0.40625 -0.8125 1.421875l-1.609375 -0.21875q0.21875 -1.015625 0.71875 -1.640625q0.5 -0.640625 1.453125 -0.984375q0.953125 -0.34375 2.1875 -0.34375q1.25 0 2.015625 0.296875q0.78125 0.28125 1.140625 0.734375q0.375 0.4375 0.515625 1.109375q0.078125 0.421875 0.078125 1.515625l0 2.1875q0 2.28125 0.109375 2.890625q0.109375 0.59375 0.40625 1.15625l-1.703125 0q-0.265625 -0.515625 -0.328125 -1.1875zm-0.140625 -3.671875q-0.890625 0.375 -2.671875 0.625q-1.015625 0.140625 -1.4375 0.328125q-0.421875 0.1875 -0.65625 0.53125q-0.21875 0.34375 -0.21875 0.78125q0 0.65625 0.5 1.09375q0.5 0.4375 1.453125 0.4375q0.9375 0 1.671875 -0.40625q0.75 -0.421875 1.09375 -1.140625q0.265625 -0.5625 0.265625 -1.640625l0 -0.609375zm7.781967 3.390625l0.234375 1.453125q-0.6875 0.140625 -1.234375 0.140625q-0.890625 0 -1.390625 -0.28125q-0.484375 -0.28125 -0.6875 -0.734375q-0.203125 -0.46875 -0.203125 -1.9375l0 -5.578125l-1.203125 0l0 -1.265625l1.203125 0l0 -2.390625l1.625 -0.984375l0 3.375l1.65625 0l0 1.265625l-1.65625 0l0 5.671875q0 0.6875 0.078125 0.890625q0.09375 0.203125 0.28125 0.328125q0.203125 0.109375 0.578125 0.109375q0.265625 0 0.71875 -0.0625zm7.917679 0.28125q-0.921875 0.765625 -1.765625 1.09375q-0.828125 0.3125 -1.796875 0.3125q-1.59375 0 -2.453125 -0.78125q-0.859375 -0.78125 -0.859375 -1.984375q0 -0.71875 0.328125 -1.296875q0.328125 -0.59375 0.84375 -0.9375q0.53125 -0.359375 1.1875 -0.546875q0.46875 -0.125 1.453125 -0.25q1.984375 -0.234375 2.921875 -0.5625q0.015625 -0.34375 0.015625 -0.421875q0 -1.0 -0.46875 -1.421875q-0.625 -0.546875 -1.875 -0.546875q-1.15625 0 -1.703125 0.40625q-0.546875 0.40625 -0.8125 1.421875l-1.609375 -0.21875q0.21875 -1.015625 0.71875 -1.640625q0.5 -0.640625 1.453125 -0.984375q0.953125 -0.34375 2.1875 -0.34375q1.25 0 2.015625 0.296875q0.78125 0.28125 1.140625 0.734375q0.375 0.4375 0.515625 1.109375q0.078125 0.421875 0.078125 1.515625l0 2.1875q0 2.28125 0.109375 2.890625q0.109375 0.59375 0.40625 1.15625l-1.703125 0q-0.265625 -0.515625 -0.328125 -1.1875zm-0.140625 -3.671875q-0.890625 0.375 -2.671875 0.625q-1.015625 0.140625 -1.4375 0.328125q-0.421875 0.1875 -0.65625 0.53125q-0.21875 0.34375 -0.21875 0.78125q0 0.65625 0.5 1.09375q0.5 0.4375 1.453125 0.4375q0.9375 0 1.671875 -0.40625q0.75 -0.421875 1.09375 -1.140625q0.265625 -0.5625 0.265625 -1.640625l0 -0.609375zm4.656967 4.859375l0 -1.875l1.875 0l0 1.875l-1.875 0zm8.308304 -1.46875l0.234375 1.453125q-0.6875 0.140625 -1.234375 0.140625q-0.890625 0 -1.390625 -0.28125q-0.484375 -0.28125 -0.6875 -0.734375q-0.203125 -0.46875 -0.203125 -1.9375l0 -5.578125l-1.203125 0l0 -1.265625l1.203125 0l0 -2.390625l1.625 -0.984375l0 3.375l1.65625 0l0 1.265625l-1.65625 0l0 5.671875q0 0.6875 0.078125 0.890625q0.09375 0.203125 0.28125 0.328125q0.203125 0.109375 0.578125 0.109375q0.265625 0 0.71875 -0.0625zm0.99580383 -3.375q0 -2.6875 1.484375 -3.96875q1.25 -1.078125 3.046875 -1.078125q2.0 0 3.265625 1.3125q1.265625 1.296875 1.265625 3.609375q0 1.859375 -0.5625 2.9375q-0.5625 1.0625 -1.640625 1.65625q-1.0625 0.59375 -2.328125 0.59375q-2.03125 0 -3.28125 -1.296875q-1.25 -1.3125 -1.25 -3.765625zm1.6875 0q0 1.859375 0.796875 2.796875q0.8125 0.921875 2.046875 0.921875q1.21875 0 2.03125 -0.921875q0.8125 -0.9375 0.8125 -2.84375q0 -1.796875 -0.8125 -2.71875q-0.8125 -0.921875 -2.03125 -0.921875q-1.234375 0 -2.046875 0.921875q-0.796875 0.90625 -0.796875 2.765625zm9.297592 4.84375l0 -9.671875l1.4687653 0l0 1.359375q0.453125 -0.71875 1.203125 -1.140625q0.765625 -0.4375 1.71875 -0.4375q1.078125 0 1.765625 0.453125q0.6875 0.4375 0.96875 1.234375q1.15625 -1.6875 2.984375 -1.6875q1.453125 0 2.21875 0.796875q0.78125 0.796875 0.78125 2.453125l0 6.640625l-1.640625 0l0 -6.09375q0 -0.984375 -0.15625 -1.40625q-0.15625 -0.4375 -0.578125 -0.703125q-0.421875 -0.265625 -0.984375 -0.265625q-1.015625 0 -1.6875 0.6875q-0.671875 0.671875 -0.671875 2.15625l0 5.625l-1.640625 0l0 -6.28125q0 -1.09375 -0.40625 -1.640625q-0.40625 -0.546875 -1.3125 -0.546875q-0.6875 0 -1.28125 0.359375q-0.59375 0.359375 -0.859375 1.0625q-0.25 0.703125 -0.25 2.03125l0 5.015625l-1.6406403 0zm15.493942 0l0 -13.359375l1.640625 0l0 13.359375l-1.640625 0z" fill-rule="nonzero"/><path fill="#eeeeee" d="m139.38058 106.609276l0 0c0 -9.663002 7.8334045 -17.496414 17.496399 -17.496414l133.82608 0c4.6403503 0 9.090607 1.8433685 12.371826 5.1245804c3.2812195 3.2812119 5.1245728 7.731491 5.1245728 12.371834l0 69.98354c0 9.66301 -7.8334045 17.496414 -17.496399 17.496414l-133.82608 0c-9.662994 0 -17.496399 -7.8334045 -17.496399 -17.496414z" fill-rule="evenodd"/><path stroke="#595959" stroke-width="1.0" stroke-linejoin="round" stroke-linecap="butt" d="m139.38058 106.609276l0 0c0 -9.663002 7.8334045 -17.496414 17.496399 -17.496414l133.82608 0c4.6403503 0 9.090607 1.8433685 12.371826 5.1245804c3.2812195 3.2812119 5.1245728 7.731491 5.1245728 12.371834l0 69.98354c0 9.66301 -7.8334045 17.496414 -17.496399 17.496414l-133.82608 0c-9.662994 0 -17.496399 -7.8334045 -17.496399 -17.496414z" fill-rule="evenodd"/><path fill="#000000" d="m187.17444 152.22417l0 -13.375l1.484375 0l0 1.25q0.53125 -0.734375 1.1875 -1.09375q0.671875 -0.375 1.625 -0.375q1.234375 0 2.171875 0.640625q0.953125 0.625 1.4375 1.796875q0.484375 1.15625 0.484375 2.546875q0 1.484375 -0.53125 2.671875q-0.53125 1.1875 -1.546875 1.828125q-1.015625 0.625 -2.140625 0.625q-0.8125 0 -1.46875 -0.34375q-0.65625 -0.34375 -1.0625 -0.875l0 4.703125l-1.640625 0zm1.484375 -8.484375q0 1.859375 0.75 2.765625q0.765625 0.890625 1.828125 0.890625q1.09375 0 1.875 -0.921875q0.78125 -0.9375 0.78125 -2.875q0 -1.84375 -0.765625 -2.765625q-0.75 -0.921875 -1.8125 -0.921875q-1.046875 0 -1.859375 0.984375q-0.796875 0.96875 -0.796875 2.84375zm8.281967 -0.0625q0 -2.6875 1.484375 -3.96875q1.25 -1.078125 3.046875 -1.078125q2.0 0 3.265625 1.3125q1.265625 1.296875 1.265625 3.609375q0 1.859375 -0.5625 2.9375q-0.5625 1.0625 -1.640625 1.65625q-1.0625 0.59375 -2.328125 0.59375q-2.03125 0 -3.28125 -1.296875q-1.25 -1.3125 -1.25 -3.765625zm1.6875 0q0 1.859375 0.796875 2.796875q0.8125 0.921875 2.046875 0.921875q1.21875 0 2.03125 -0.921875q0.8125 -0.9375 0.8125 -2.84375q0 -1.796875 -0.8125 -2.71875q-0.8125 -0.921875 -2.03125 -0.921875q-1.234375 0 -2.046875 0.921875q-0.796875 0.90625 -0.796875 2.765625zm15.563217 4.84375l0 -1.21875q-0.90625 1.4375 -2.703125 1.4375q-1.15625 0 -2.125 -0.640625q-0.96875 -0.640625 -1.5 -1.78125q-0.53125 -1.140625 -0.53125 -2.625q0 -1.453125 0.484375 -2.625q0.484375 -1.1875 1.4375 -1.8125q0.96875 -0.625 2.171875 -0.625q0.875 0 1.546875 0.375q0.6875 0.359375 1.109375 0.953125l0 -4.796875l1.640625 0l0 13.359375l-1.53125 0zm-5.171875 -4.828125q0 1.859375 0.78125 2.78125q0.78125 0.921875 1.84375 0.921875q1.078125 0 1.828125 -0.875q0.75 -0.890625 0.75 -2.6875q0 -1.984375 -0.765625 -2.90625q-0.765625 -0.9375 -1.890625 -0.9375q-1.078125 0 -1.8125 0.890625q-0.734375 0.890625 -0.734375 2.8125zm9.735092 4.828125l0 -1.875l1.875 0l0 1.875l-1.875 0zm4.652054 3.71875l-0.1875 -1.53125q0.546875 0.140625 0.9375 0.140625q0.546875 0 0.875 -0.1875q0.328125 -0.171875 0.546875 -0.5q0.15625 -0.25 0.5 -1.21875q0.046875 -0.140625 0.140625 -0.40625l-3.671875 -9.6875l1.765625 0l2.015625 5.59375q0.390625 1.078125 0.703125 2.25q0.28125 -1.125 0.671875 -2.203125l2.078125 -5.640625l1.640625 0l-3.6875 9.828125q-0.59375 1.609375 -0.921875 2.203125q-0.4375 0.8125 -1.0 1.1875q-0.5625 0.375 -1.34375 0.375q-0.484375 0 -1.0625 -0.203125zm15.71875 -4.90625q-0.921875 0.765625 -1.765625 1.09375q-0.828125 0.3125 -1.796875 0.3125q-1.59375 0 -2.453125 -0.78125q-0.859375 -0.78125 -0.859375 -1.984375q0 -0.71875 0.328125 -1.296875q0.328125 -0.59375 0.84375 -0.9375q0.53125 -0.359375 1.1875 -0.546875q0.46875 -0.125 1.453125 -0.25q1.984375 -0.234375 2.921875 -0.5625q0.015625 -0.34375 0.015625 -0.421875q0 -1.0 -0.46875 -1.421875q-0.625 -0.546875 -1.875 -0.546875q-1.15625 0 -1.703125 0.40625q-0.546875 0.40625 -0.8125 1.421875l-1.609375 -0.21875q0.21875 -1.015625 0.71875 -1.640625q0.5 -0.640625 1.453125 -0.984375q0.953125 -0.34375 2.1875 -0.34375q1.25 0 2.015625 0.296875q0.78125 0.28125 1.140625 0.734375q0.375 0.4375 0.515625 1.109375q0.078125 0.421875 0.078125 1.515625l0 2.1875q0 2.28125 0.109375 2.890625q0.109375 0.59375 0.40625 1.15625l-1.703125 0q-0.265625 -0.515625 -0.328125 -1.1875zm-0.140625 -3.671875q-0.890625 0.375 -2.671875 0.625q-1.015625 0.140625 -1.4375 0.328125q-0.421875 0.1875 -0.65625 0.53125q-0.21875 0.34375 -0.21875 0.78125q0 0.65625 0.5 1.09375q0.5 0.4375 1.453125 0.4375q0.9375 0 1.671875 -0.40625q0.75 -0.421875 1.09375 -1.140625q0.265625 -0.5625 0.265625 -1.640625l0 -0.609375zm4.203842 4.859375l0 -9.671875l1.46875 0l0 1.359375q0.453125 -0.71875 1.203125 -1.140625q0.765625 -0.4375 1.71875 -0.4375q1.078125 0 1.765625 0.453125q0.6875 0.4375 0.96875 1.234375q1.15625 -1.6875 2.984375 -1.6875q1.453125 0 2.21875 0.796875q0.78126526 0.796875 0.78126526 2.453125l0 6.640625l-1.6406403 0l0 -6.09375q0 -0.984375 -0.15625 -1.40625q-0.15625 -0.4375 -0.578125 -0.703125q-0.421875 -0.265625 -0.984375 -0.265625q-1.015625 0 -1.6875 0.6875q-0.671875 0.671875 -0.671875 2.15625l0 5.625l-1.640625 0l0 -6.28125q0 -1.09375 -0.40625 -1.640625q-0.40625 -0.546875 -1.3125 -0.546875q-0.6875 0 -1.28125 0.359375q-0.59375 0.359375 -0.859375 1.0625q-0.25 0.703125 -0.25 2.03125l0 5.015625l-1.640625 0zm15.493942 0l0 -13.359375l1.640625 0l0 13.359375l-1.640625 0z" fill-rule="nonzero"/><path fill="#eeeeee" d="m393.07086 106.609276l0 0c0 -9.663002 7.8334045 -17.496414 17.49643 -17.496414l133.82608 0c4.64032 0 9.090576 1.8433685 12.371826 5.1245804c3.281189 3.2812119 5.1245728 7.731491 5.1245728 12.371834l0 69.98354c0 9.66301 -7.833435 17.496414 -17.496399 17.496414l-133.82608 0c-9.663025 0 -17.49643 -7.8334045 -17.49643 -17.496414z" fill-rule="evenodd"/><path stroke="#595959" stroke-width="1.0" stroke-linejoin="round" stroke-linecap="butt" d="m393.07086 106.609276l0 0c0 -9.663002 7.8334045 -17.496414 17.49643 -17.496414l133.82608 0c4.64032 0 9.090576 1.8433685 12.371826 5.1245804c3.281189 3.2812119 5.1245728 7.731491 5.1245728 12.371834l0 69.98354c0 9.66301 -7.833435 17.496414 -17.496399 17.496414l-133.82608 0c-9.663025 0 -17.49643 -7.8334045 -17.49643 -17.496414z" fill-rule="evenodd"/><path fill="#000000" d="m430.61856 148.52104l0 -13.359375l1.78125 0l0 6.625l6.625 -6.625l2.390625 0l-5.59375 5.421875l5.84375 7.9375l-2.328125 0l-4.765625 -6.765625l-2.171875 2.140625l0 4.625l-1.78125 0zm12.443573 0l0 -13.359375l5.015625 0q1.53125 0 2.453125 0.40625q0.921875 0.40625 1.4375 1.25q0.53125 0.84375 0.53125 1.765625q0 0.859375 -0.46875 1.625q-0.453125 0.75 -1.390625 1.203125q1.203125 0.359375 1.859375 1.21875q0.65625 0.859375 0.65625 2.015625q0 0.9375 -0.40625 1.75q-0.390625 0.796875 -0.984375 1.234375q-0.578125 0.4375 -1.453125 0.671875q-0.875 0.21875 -2.15625 0.21875l-5.09375 0zm1.78125 -7.75l2.875 0q1.1875 0 1.6875 -0.140625q0.671875 -0.203125 1.015625 -0.671875q0.34375 -0.46875 0.34375 -1.171875q0 -0.65625 -0.328125 -1.15625q-0.3125 -0.515625 -0.90625 -0.703125q-0.59375 -0.1875 -2.03125 -0.1875l-2.65625 0l0 4.03125zm0 6.171875l3.3125 0q0.859375 0 1.203125 -0.0625q0.609375 -0.109375 1.015625 -0.359375q0.421875 -0.265625 0.6875 -0.75q0.265625 -0.484375 0.265625 -1.125q0 -0.75 -0.390625 -1.296875q-0.375 -0.546875 -1.0625 -0.765625q-0.671875 -0.234375 -1.953125 -0.234375l-3.078125 0l0 4.59375zm10.146698 -2.71875l1.65625 -0.140625q0.125 1.0 0.546875 1.640625q0.4375 0.640625 1.34375 1.046875q0.921875 0.390625 2.0625 0.390625q1.0 0 1.78125 -0.296875q0.78125 -0.296875 1.15625 -0.8125q0.375 -0.53125 0.375 -1.15625q0 -0.625 -0.375 -1.09375q-0.359375 -0.46875 -1.1875 -0.796875q-0.546875 -0.203125 -2.390625 -0.640625q-1.828125 -0.453125 -2.5625 -0.84375q-0.96875 -0.5 -1.4375 -1.234375q-0.46875 -0.75 -0.46875 -1.671875q0 -1.0 0.578125 -1.875q0.578125 -0.890625 1.671875 -1.34375q1.109375 -0.453125 2.453125 -0.453125q1.484375 0 2.609375 0.484375q1.140625 0.46875 1.75 1.40625q0.609375 0.921875 0.65625 2.09375l-1.6875 0.125q-0.140625 -1.265625 -0.9375 -1.90625q-0.78125 -0.65625 -2.3125 -0.65625q-1.609375 0 -2.34375 0.59375q-0.734375 0.59375 -0.734375 1.421875q0 0.71875 0.53125 1.171875q0.5 0.46875 2.65625 0.96875q2.15625 0.484375 2.953125 0.84375q1.171875 0.53125 1.71875 1.359375q0.5625 0.828125 0.5625 1.90625q0 1.0625 -0.609375 2.015625q-0.609375 0.9375 -1.75 1.46875q-1.140625 0.515625 -2.578125 0.515625q-1.8125 0 -3.046875 -0.53125q-1.21875 -0.53125 -1.921875 -1.59375q-0.6875 -1.0625 -0.71875 -2.40625zm27.751892 -0.390625l1.765625 0.453125q-0.5625 2.171875 -2.0 3.328125q-1.4375 1.140625 -3.53125 1.140625q-2.15625 0 -3.515625 -0.875q-1.34375 -0.890625 -2.0625 -2.546875q-0.703125 -1.671875 -0.703125 -3.59375q0 -2.078125 0.796875 -3.625q0.796875 -1.5625 2.265625 -2.359375q1.484375 -0.8125 3.25 -0.8125q2.0 0 3.359375 1.015625q1.375 1.015625 1.90625 2.875l-1.734375 0.40625q-0.46875 -1.453125 -1.359375 -2.109375q-0.875 -0.671875 -2.203125 -0.671875q-1.546875 0 -2.578125 0.734375q-1.03125 0.734375 -1.453125 1.984375q-0.421875 1.234375 -0.421875 2.5625q0 1.703125 0.5 2.96875q0.5 1.265625 1.546875 1.90625q1.046875 0.625 2.265625 0.625q1.484375 0 2.515625 -0.859375q1.03125 -0.859375 1.390625 -2.546875zm3.129181 -0.15625q0 -2.6875 1.484375 -3.96875q1.25 -1.078125 3.046875 -1.078125q2.0 0 3.265625 1.3125q1.265625 1.296875 1.265625 3.609375q0 1.859375 -0.5625 2.9375q-0.5625 1.0625 -1.640625 1.65625q-1.0625 0.59375 -2.328125 0.59375q-2.03125 0 -3.28125 -1.296875q-1.25 -1.3125 -1.25 -3.765625zm1.6875 0q0 1.859375 0.796875 2.796875q0.8125 0.921875 2.046875 0.921875q1.21875 0 2.03125 -0.921875q0.8125 -0.9375 0.8125 -2.84375q0 -1.796875 -0.8125 -2.71875q-0.8125 -0.921875 -2.03125 -0.921875q-1.234375 0 -2.046875 0.921875q-0.796875 0.90625 -0.796875 2.765625zm9.297607 4.84375l0 -9.671875l1.46875 0l0 1.375q1.0625 -1.59375 3.078125 -1.59375q0.875 0 1.609375 0.3125q0.734375 0.3125 1.09375 0.828125q0.375 0.5 0.515625 1.203125q0.09375 0.453125 0.09375 1.59375l0 5.953125l-1.640625 0l0 -5.890625q0 -1.0 -0.203125 -1.484375q-0.1875 -0.5 -0.671875 -0.796875q-0.484375 -0.296875 -1.140625 -0.296875q-1.046875 0 -1.8125 0.671875q-0.75 0.65625 -0.75 2.515625l0 5.28125l-1.640625 0zm10.766327 0l0 -8.40625l-1.453125 0l0 -1.265625l1.453125 0l0 -1.03125q0 -0.96875 0.171875 -1.453125q0.234375 -0.640625 0.828125 -1.03125q0.59375 -0.390625 1.671875 -0.390625q0.6875 0 1.53125 0.15625l-0.25 1.4375q-0.5 -0.09375 -0.953125 -0.09375q-0.75 0 -1.0625 0.328125q-0.3125 0.3125 -0.3125 1.1875l0 0.890625l1.890625 0l0 1.265625l-1.890625 0l0 8.40625l-1.625 0zm4.792694 -11.46875l0 -1.890625l1.640625 0l0 1.890625l-1.640625 0zm0 11.46875l0 -9.671875l1.640625 0l0 9.671875l-1.640625 0zm3.8323364 0.796875l1.59375 0.234375q0.109375 0.75 0.5625 1.078125q0.609375 0.453125 1.671875 0.453125q1.140625 0 1.75 -0.453125q0.625 -0.453125 0.84375 -1.265625q0.125 -0.5 0.109375 -2.109375q-1.0625 1.265625 -2.671875 1.265625q-2.0 0 -3.09375 -1.4375q-1.09375 -1.4375 -1.09375 -3.453125q0 -1.390625 0.5 -2.5625q0.515625 -1.171875 1.453125 -1.796875q0.953125 -0.640625 2.25 -0.640625q1.703125 0 2.8125 1.375l0 -1.15625l1.515625 0l0 8.359375q0 2.265625 -0.46875 3.203125q-0.453125 0.9375 -1.453125 1.484375q-0.984375 0.546875 -2.453125 0.546875q-1.71875 0 -2.796875 -0.78125q-1.0625 -0.765625 -1.03125 -2.34375zm1.359375 -5.8125q0 1.90625 0.75 2.78125q0.765625 0.875 1.90625 0.875q1.125 0 1.890625 -0.859375q0.765625 -0.875 0.765625 -2.734375q0 -1.78125 -0.796875 -2.671875q-0.78125 -0.90625 -1.890625 -0.90625q-1.09375 0 -1.859375 0.890625q-0.765625 0.875 -0.765625 2.625z" fill-rule="nonzero"/><path fill="#eeeeee" d="m208.24672 368.05774l15.543304 -15.543304l15.543304 15.543304l-7.771652 0l0 26.0l-15.543304 0l0 -26.0z" fill-rule="evenodd"/><path stroke="#595959" stroke-width="1.0" stroke-linejoin="round" stroke-linecap="butt" d="m208.24672 368.05774l15.543304 -15.543304l15.543304 15.543304l-7.771652 0l0 26.0l-15.543304 0l0 -26.0z" fill-rule="evenodd"/><path fill="#eeeeee" d="m208.24672 213.60104l15.543304 -15.543304l15.543304 15.543304l-7.771652 0l0 26.0l-15.543304 0l0 -26.0z" fill-rule="evenodd"/><path stroke="#595959" stroke-width="1.0" stroke-linejoin="round" stroke-linecap="butt" d="m208.24672 213.60104l15.543304 -15.543304l15.543304 15.543304l-7.771652 0l0 26.0l-15.543304 0l0 -26.0z" fill-rule="evenodd"/><path fill="#eeeeee" d="m368.2467 280.51443l15.543335 15.543304l-15.543335 15.543304l0 -7.771637l-47.606293 0l0 -15.543304l47.606293 0z" fill-rule="evenodd"/><path stroke="#595959" stroke-width="1.0" stroke-linejoin="round" stroke-linecap="butt" d="m368.2467 280.51443l15.543335 15.543304l-15.543335 15.543304l0 -7.771637l-47.606293 0l0 -15.543304l47.606293 0z" fill-rule="evenodd"/><path fill="#000000" fill-opacity="0.0" d="m314.76117 249.44882l77.25983 0l0 40.409454l-77.25983 0z" fill-rule="evenodd"/><path fill="#000000" d="m324.3393 275.0888l2.59375 -12.40625l1.53125 0l-1.0 4.765625q0.859375 -0.828125 1.59375 -1.1875q0.734375 -0.359375 1.515625 -0.359375q1.109375 0 1.71875 0.59375q0.625 0.578125 0.625 1.546875q0 0.46875 -0.265625 1.734375l-1.109375 5.3125l-1.53125 0l1.140625 -5.4375q0.25 -1.1875 0.25 -1.484375q0 -0.453125 -0.3125 -0.71875q-0.296875 -0.28125 -0.875 -0.28125q-0.828125 0 -1.578125 0.4375q-0.75 0.421875 -1.1875 1.1875q-0.421875 0.75 -0.78125 2.4375l-0.796875 3.859375l-1.53125 0zm15.699585 -1.109375q-0.796875 0.671875 -1.546875 1.0q-0.734375 0.3125 -1.5625 0.3125q-1.25 0 -2.015625 -0.734375q-0.75 -0.734375 -0.75 -1.875q0 -0.75 0.34375 -1.328125q0.34375 -0.578125 0.90625 -0.921875q0.5625 -0.359375 1.390625 -0.515625q0.515625 -0.09375 1.953125 -0.15625q1.4375 -0.0625 2.0625 -0.3125q0.1875 -0.625 0.1875 -1.03125q0 -0.53125 -0.390625 -0.84375q-0.53125 -0.421875 -1.5625 -0.421875q-0.953125 0 -1.578125 0.4375q-0.609375 0.421875 -0.890625 1.203125l-1.546875 -0.140625q0.46875 -1.328125 1.5 -2.03125q1.03125 -0.71875 2.59375 -0.71875q1.671875 0 2.640625 0.796875q0.75 0.59375 0.75 1.53125q0 0.71875 -0.21875 1.671875l-0.5 2.234375q-0.234375 1.0625 -0.234375 1.734375q0 0.421875 0.1875 1.21875l-1.546875 0q-0.125 -0.4375 -0.171875 -1.109375zm0.5625 -3.4375q-0.328125 0.125 -0.703125 0.1875q-0.359375 0.0625 -1.21875 0.140625q-1.34375 0.125 -1.890625 0.3125q-0.546875 0.171875 -0.828125 0.578125q-0.28125 0.390625 -0.28125 0.875q0 0.640625 0.4375 1.0625q0.453125 0.40625 1.28125 0.40625q0.75 0 1.453125 -0.390625q0.703125 -0.40625 1.109375 -1.125q0.40625 -0.71875 0.640625 -2.046875zm3.15271 1.46875l1.53125 -0.09375q0 0.671875 0.203125 1.140625q0.203125 0.453125 0.75 0.75q0.546875 0.296875 1.265625 0.296875q1.015625 0 1.515625 -0.40625q0.515625 -0.40625 0.515625 -0.953125q0 -0.390625 -0.296875 -0.75q-0.3125 -0.359375 -1.53125 -0.875q-1.21875 -0.53125 -1.546875 -0.734375q-0.5625 -0.34375 -0.859375 -0.8125q-0.28125 -0.46875 -0.28125 -1.078125q0 -1.078125 0.84375 -1.828125q0.84375 -0.765625 2.359375 -0.765625q1.703125 0 2.578125 0.78125q0.890625 0.78125 0.921875 2.0625l-1.5 0.09375q-0.03125 -0.8125 -0.578125 -1.28125q-0.53125 -0.46875 -1.53125 -0.46875q-0.78125 0 -1.234375 0.359375q-0.4375 0.359375 -0.4375 0.78125q0 0.421875 0.390625 0.75q0.25 0.21875 1.3125 0.671875q1.75 0.765625 2.203125 1.203125q0.734375 0.703125 0.734375 1.71875q0 0.65625 -0.421875 1.3125q-0.40625 0.640625 -1.25 1.03125q-0.828125 0.375 -1.96875 0.375q-1.5625 0 -2.65625 -0.765625q-1.09375 -0.78125 -1.03125 -2.515625zm8.5234375 3.078125l2.59375 -12.40625l1.53125 0l-1.0 4.765625q0.859375 -0.828125 1.59375 -1.1875q0.734375 -0.359375 1.515625 -0.359375q1.109375 0 1.71875 0.59375q0.625 0.578125 0.625 1.546875q0 0.46875 -0.265625 1.734375l-1.109375 5.3125l-1.53125 0l1.140625 -5.4375q0.25 -1.1875 0.25 -1.484375q0 -0.453125 -0.3125 -0.71875q-0.296875 -0.28125 -0.875 -0.28125q-0.828125 0 -1.578125 0.4375q-0.75 0.421875 -1.1875 1.1875q-0.421875 0.75 -0.78125 2.4375l-0.796875 3.859375l-1.53125 0z" fill-rule="nonzero"/><path fill="#eeeeee" d="m651.80054 106.609276l0 0c0 -9.663002 7.833374 -17.496414 17.496399 -17.496414l133.82605 0c4.640381 0 9.090637 1.8433685 12.371826 5.1245804c3.28125 3.2812119 5.124634 7.731491 5.124634 12.371834l0 69.98354c0 9.66301 -7.833435 17.496414 -17.49646 17.496414l-133.82605 0c-9.663025 0 -17.496399 -7.8334045 -17.496399 -17.496414z" fill-rule="evenodd"/><path stroke="#595959" stroke-width="1.0" stroke-linejoin="round" stroke-linecap="butt" d="m651.80054 106.609276l0 0c0 -9.663002 7.833374 -17.496414 17.496399 -17.496414l133.82605 0c4.640381 0 9.090637 1.8433685 12.371826 5.1245804c3.28125 3.2812119 5.124634 7.731491 5.124634 12.371834l0 69.98354c0 9.66301 -7.833435 17.496414 -17.49646 17.496414l-133.82605 0c-9.663025 0 -17.496399 -7.8334045 -17.496399 -17.496414z" fill-rule="evenodd"/><path fill="#000000" d="m694.1794 148.52104l5.125 -13.359375l1.90625 0l5.46875 13.359375l-2.015625 0l-1.546875 -4.046875l-5.59375 0l-1.46875 4.046875l-1.875 0zm3.859375 -5.484375l4.53125 0l-1.40625 -3.703125q-0.625 -1.6875 -0.9375 -2.765625q-0.265625 1.28125 -0.71875 2.546875l-1.46875 3.921875zm9.4592285 1.1875l1.65625 -0.140625q0.125 1.0 0.546875 1.640625q0.4375 0.640625 1.34375 1.046875q0.921875 0.390625 2.0625 0.390625q1.0 0 1.78125 -0.296875q0.78125 -0.296875 1.15625 -0.8125q0.375 -0.53125 0.375 -1.15625q0 -0.625 -0.375 -1.09375q-0.359375 -0.46875 -1.1875 -0.796875q-0.546875 -0.203125 -2.390625 -0.640625q-1.828125 -0.453125 -2.5625 -0.84375q-0.96875 -0.5 -1.4375 -1.234375q-0.46875 -0.75 -0.46875 -1.671875q0 -1.0 0.578125 -1.875q0.578125 -0.890625 1.671875 -1.34375q1.109375 -0.453125 2.453125 -0.453125q1.484375 0 2.609375 0.484375q1.140625 0.46875 1.75 1.40625q0.609375 0.921875 0.65625 2.09375l-1.6875 0.125q-0.140625 -1.265625 -0.9375 -1.90625q-0.78125 -0.65625 -2.3125 -0.65625q-1.609375 0 -2.34375 0.59375q-0.734375 0.59375 -0.734375 1.421875q0 0.71875 0.53125 1.171875q0.5 0.46875 2.65625 0.96875q2.15625 0.484375 2.953125 0.84375q1.171875 0.53125 1.71875 1.359375q0.5625 0.828125 0.5625 1.90625q0 1.0625 -0.609375 2.015625q-0.609375 0.9375 -1.75 1.46875q-1.140625 0.515625 -2.578125 0.515625q-1.8125 0 -3.046875 -0.53125q-1.21875 -0.53125 -1.921875 -1.59375q-0.6875 -1.0625 -0.71875 -2.40625zm27.751831 -0.390625l1.765625 0.453125q-0.5625 2.171875 -2.0 3.328125q-1.4375 1.140625 -3.53125 1.140625q-2.15625 0 -3.515625 -0.875q-1.34375 -0.890625 -2.0625 -2.546875q-0.703125 -1.671875 -0.703125 -3.59375q0 -2.078125 0.796875 -3.625q0.796875 -1.5625 2.265625 -2.359375q1.484375 -0.8125 3.25 -0.8125q2.0 0 3.359375 1.015625q1.375 1.015625 1.90625 2.875l-1.734375 0.40625q-0.46875 -1.453125 -1.359375 -2.109375q-0.875 -0.671875 -2.203125 -0.671875q-1.546875 0 -2.578125 0.734375q-1.03125 0.734375 -1.453125 1.984375q-0.421875 1.234375 -0.421875 2.5625q0 1.703125 0.5 2.96875q0.5 1.265625 1.546875 1.90625q1.046875 0.625 2.265625 0.625q1.484375 0 2.515625 -0.859375q1.03125 -0.859375 1.390625 -2.546875zm3.1292114 -0.15625q0 -2.6875 1.484375 -3.96875q1.25 -1.078125 3.046875 -1.078125q2.0 0 3.265625 1.3125q1.265625 1.296875 1.265625 3.609375q0 1.859375 -0.5625 2.9375q-0.5625 1.0625 -1.640625 1.65625q-1.0625 0.59375 -2.328125 0.59375q-2.03125 0 -3.28125 -1.296875q-1.25 -1.3125 -1.25 -3.765625zm1.6875 0q0 1.859375 0.796875 2.796875q0.8125 0.921875 2.046875 0.921875q1.21875 0 2.03125 -0.921875q0.8125 -0.9375 0.8125 -2.84375q0 -1.796875 -0.8125 -2.71875q-0.8125 -0.921875 -2.03125 -0.921875q-1.234375 0 -2.046875 0.921875q-0.796875 0.90625 -0.796875 2.765625zm9.297607 4.84375l0 -9.671875l1.46875 0l0 1.375q1.0625 -1.59375 3.078125 -1.59375q0.875 0 1.609375 0.3125q0.734375 0.3125 1.09375 0.828125q0.375 0.5 0.515625 1.203125q0.09375 0.453125 0.09375 1.59375l0 5.953125l-1.640625 0l0 -5.890625q0 -1.0 -0.203125 -1.484375q-0.1875 -0.5 -0.671875 -0.796875q-0.484375 -0.296875 -1.140625 -0.296875q-1.046875 0 -1.8125 0.671875q-0.75 0.65625 -0.75 2.515625l0 5.28125l-1.640625 0zm10.766357 0l0 -8.40625l-1.453125 0l0 -1.265625l1.453125 0l0 -1.03125q0 -0.96875 0.171875 -1.453125q0.234375 -0.640625 0.828125 -1.03125q0.59375 -0.390625 1.671875 -0.390625q0.6875 0 1.53125 0.15625l-0.25 1.4375q-0.5 -0.09375 -0.953125 -0.09375q-0.75 0 -1.0625 0.328125q-0.3125 0.3125 -0.3125 1.1875l0 0.890625l1.890625 0l0 1.265625l-1.890625 0l0 8.40625l-1.625 0zm4.7926636 -11.46875l0 -1.890625l1.640625 0l0 1.890625l-1.640625 0zm0 11.46875l0 -9.671875l1.640625 0l0 9.671875l-1.640625 0zm3.8323364 0.796875l1.59375 0.234375q0.109375 0.75 0.5625 1.078125q0.609375 0.453125 1.671875 0.453125q1.140625 0 1.75 -0.453125q0.625 -0.453125 0.84375 -1.265625q0.125 -0.5 0.109375 -2.109375q-1.0625 1.265625 -2.671875 1.265625q-2.0 0 -3.09375 -1.4375q-1.09375 -1.4375 -1.09375 -3.453125q0 -1.390625 0.5 -2.5625q0.515625 -1.171875 1.453125 -1.796875q0.953125 -0.640625 2.25 -0.640625q1.703125 0 2.8125 1.375l0 -1.15625l1.515625 0l0 8.359375q0 2.265625 -0.46875 3.203125q-0.453125 0.9375 -1.453125 1.484375q-0.984375 0.546875 -2.453125 0.546875q-1.71875 0 -2.796875 -0.78125q-1.0625 -0.765625 -1.03125 -2.34375zm1.359375 -5.8125q0 1.90625 0.75 2.78125q0.765625 0.875 1.90625 0.875q1.125 0 1.890625 -0.859375q0.765625 -0.875 0.765625 -2.734375q0 -1.78125 -0.796875 -2.671875q-0.78125 -0.90625 -1.890625 -0.90625q-1.09375 0 -1.859375 0.890625q-0.765625 0.875 -0.765625 2.625z" fill-rule="nonzero"/><path fill="#eeeeee" d="m461.937 213.60104l15.543304 -15.543304l15.543304 15.543304l-7.771637 0l0 26.0l-15.543335 0l0 -26.0z" fill-rule="evenodd"/><path stroke="#595959" stroke-width="1.0" stroke-linejoin="round" stroke-linecap="butt" d="m461.937 213.60104l15.543304 -15.543304l15.543304 15.543304l-7.771637 0l0 26.0l-15.543335 0l0 -26.0z" fill-rule="evenodd"/><path fill="#eeeeee" d="m720.6667 213.60104l15.543274 -15.543304l15.543335 15.543304l-7.7716675 0l0 26.0l-15.543335 0l0 -26.0z" fill-rule="evenodd"/><path stroke="#595959" stroke-width="1.0" stroke-linejoin="round" stroke-linecap="butt" d="m720.6667 213.60104l15.543274 -15.543304l15.543335 15.543304l-7.7716675 0l0 26.0l-15.543335 0l0 -26.0z" fill-rule="evenodd"/><path fill="#000000" fill-opacity="0.0" d="m493.02362 197.82152l111.71655 0l0 40.409454l-111.71655 0z" fill-rule="evenodd"/><path fill="#000000" d="m501.85175 226.89902l2.59375 -12.421875l1.40625 0l-0.25 1.25q0.78125 -0.8125 1.390625 -1.125q0.625 -0.328125 1.328125 -0.328125q1.28125 0 2.125 0.9375q0.84375 0.9375 0.84375 2.671875q0 1.40625 -0.46875 2.5625q-0.453125 1.15625 -1.140625 1.859375q-0.671875 0.703125 -1.375 1.03125q-0.6875 0.328125 -1.40625 0.328125q-1.625 0 -2.5 -1.640625l-1.015625 4.875l-1.53125 0zm3.015625 -7.109375q0 1.0 0.15625 1.390625q0.203125 0.5625 0.6875 0.90625q0.484375 0.328125 1.125 0.328125q1.3125 0 2.125 -1.484375q0.8125 -1.484375 0.8125 -3.03125q0 -1.140625 -0.546875 -1.765625q-0.546875 -0.625 -1.359375 -0.625q-0.578125 0 -1.078125 0.3125q-0.5 0.3125 -0.9375 0.921875q-0.421875 0.609375 -0.703125 1.5q-0.28125 0.890625 -0.28125 1.546875zm13.43396 2.5625q-0.796875 0.671875 -1.546875 1.0q-0.734375 0.3125 -1.5625 0.3125q-1.25 0 -2.015625 -0.734375q-0.75 -0.734375 -0.75 -1.875q0 -0.75 0.34375 -1.328125q0.34375 -0.578125 0.90625 -0.921875q0.5625 -0.359375 1.390625 -0.515625q0.515625 -0.09375 1.953125 -0.15625q1.4375 -0.0625 2.0625 -0.3125q0.1875 -0.625 0.1875 -1.03125q0 -0.53125 -0.390625 -0.84375q-0.53125 -0.421875 -1.5625 -0.421875q-0.953125 0 -1.578125 0.4375q-0.609375 0.421875 -0.890625 1.203125l-1.546875 -0.140625q0.46875 -1.328125 1.5 -2.03125q1.03125 -0.71875 2.59375 -0.71875q1.671875 0 2.640625 0.796875q0.75 0.59375 0.75 1.53125q0 0.71875 -0.21875 1.671875l-0.5 2.234375q-0.234375 1.0625 -0.234375 1.734375q0 0.421875 0.1875 1.21875l-1.546875 0q-0.125 -0.4375 -0.171875 -1.109375zm0.5625 -3.4375q-0.328125 0.125 -0.703125 0.1875q-0.359375 0.0625 -1.21875 0.140625q-1.34375 0.125 -1.890625 0.3125q-0.546875 0.171875 -0.828125 0.578125q-0.28125 0.390625 -0.28125 0.875q0 0.640625 0.4375 1.0625q0.453125 0.40625 1.28125 0.40625q0.75 0 1.453125 -0.390625q0.703125 -0.40625 1.109375 -1.125q0.40625 -0.71875 0.640625 -2.046875zm6.59021 3.296875l-0.25 1.265625q-0.5625 0.140625 -1.078125 0.140625q-0.90625 0 -1.453125 -0.453125q-0.40625 -0.34375 -0.40625 -0.921875q0 -0.296875 0.21875 -1.359375l1.09375 -5.21875l-1.203125 0l0.234375 -1.1875l1.21875 0l0.46875 -2.203125l1.75 -1.0625l-0.6875 3.265625l1.5 0l-0.25 1.1875l-1.5 0l-1.03125 4.96875q-0.203125 0.9375 -0.203125 1.125q0 0.265625 0.15625 0.421875q0.15625 0.140625 0.515625 0.140625q0.5 0 0.90625 -0.109375zm1.236206 1.25l2.59375 -12.40625l1.53125 0l-1.0 4.765625q0.859375 -0.828125 1.59375 -1.1875q0.734375 -0.359375 1.515625 -0.359375q1.109375 0 1.71875 0.59375q0.625 0.578125 0.625 1.546875q0 0.46875 -0.265625 1.734375l-1.109375 5.3125l-1.53125 0l1.140625 -5.4375q0.25 -1.1875 0.25 -1.484375q0 -0.453125 -0.3125 -0.71875q-0.296875 -0.28125 -0.875 -0.28125q-0.828125 0 -1.578125 0.4375q-0.75 0.421875 -1.1875 1.1875q-0.421875 0.75 -0.78125 2.4375l-0.796875 3.859375l-1.53125 0zm15.467041 3.640625l0 -16.25l1.328125 0l0 16.25l-1.328125 0zm4.5012207 0l0 -16.25l1.328125 0l0 16.25l-1.328125 0zm14.503052 -6.921875l1.53125 0.171875q-0.578125 1.671875 -1.640625 2.5q-1.0625 0.8125 -2.421875 0.8125q-1.453125 0 -2.375 -0.9375q-0.90625 -0.953125 -0.90625 -2.65625q0 -1.46875 0.578125 -2.890625q0.59375 -1.421875 1.671875 -2.15625q1.09375 -0.75 2.5 -0.75q1.4375 0 2.28125 0.8125q0.84375 0.8125 0.84375 2.171875l-1.5 0.09375q-0.015625 -0.859375 -0.5 -1.328125q-0.484375 -0.484375 -1.28125 -0.484375q-0.921875 0 -1.59375 0.578125q-0.671875 0.578125 -1.0625 1.78125q-0.390625 1.1875 -0.390625 2.28125q0 1.15625 0.5 1.734375q0.515625 0.5625 1.265625 0.5625q0.75 0 1.421875 -0.5625q0.6875 -0.5625 1.078125 -1.734375zm2.3359375 3.28125l2.59375 -12.40625l1.53125 0l-2.59375 12.40625l-1.53125 0zm6.1466675 -10.671875l0.359375 -1.734375l1.53125 0l-0.375 1.734375l-1.515625 0zm-2.234375 10.671875l1.875 -8.984375l1.53125 0l-1.875 8.984375l-1.53125 0z" fill-rule="nonzero"/><path fill="#000000" fill-opacity="0.0" d="m239.33333 352.27823l104.18898 0l0 40.409424l-104.18898 0z" fill-rule="evenodd"/><path fill="#000000" d="m255.5052 374.87134l1.5000153 0.140625q-0.328125 1.109375 -1.4843903 2.109375q-1.15625 1.0 -2.75 1.0q-1.0 0 -1.84375 -0.453125q-0.828125 -0.46875 -1.265625 -1.34375q-0.4375 -0.890625 -0.4375 -2.015625q0 -1.46875 0.6875 -2.84375q0.6875 -1.390625 1.765625 -2.0625q1.078125 -0.671875 2.34375 -0.671875q1.609375 0 2.5625153 1.0q0.96875 1.0 0.96875 2.71875q0 0.65625 -0.125 1.359375l-6.6093903 0q-0.046875 0.265625 -0.046875 0.46875q0 1.265625 0.578125 1.9375q0.59375 0.65625 1.421875 0.65625q0.796875 0 1.546875 -0.515625q0.765625 -0.515625 1.1875 -1.484375zm-4.453125 -2.234375l5.0468903 0q0.015625 -0.234375 0.015625 -0.34375q0 -1.140625 -0.57814026 -1.75q-0.578125 -0.625 -1.484375 -0.625q-0.984375 0 -1.796875 0.6875q-0.796875 0.671875 -1.203125 2.03125zm7.48085 5.28125l1.875 -8.984375l1.546875 0l-0.328125 1.484375q0.859375 -0.96875 1.53125 -1.328125q0.671875 -0.359375 1.46875 -0.359375q0.828125 0 1.390625 0.453125q0.5625 0.4375 0.75 1.234375q0.671875 -0.84375 1.421875 -1.265625q0.765625 -0.421875 1.609375 -0.421875q1.125 0 1.6875 0.53125q0.5625 0.53125 0.5625 1.5q0 0.40625 -0.1875 1.375l-1.21875 5.78125l-1.53125 0l1.234375 -5.9375q0.171875 -0.734375 0.171875 -1.046875q0 -0.4375 -0.28125 -0.6875q-0.28125 -0.25 -0.796875 -0.25q-0.6875 0 -1.40625 0.421875q-0.703125 0.40625 -1.09375 1.078125q-0.390625 0.671875 -0.6875 2.0625l-0.90625 4.359375l-1.53125 0l1.265625 -6.0625q0.140625 -0.625 0.140625 -0.890625q0 -0.4375 -0.28125 -0.703125q-0.28125 -0.265625 -0.71875 -0.265625q-0.65625 0 -1.375 0.421875q-0.703125 0.40625 -1.15625 1.140625q-0.4375 0.734375 -0.734375 2.109375l-0.890625 4.25l-1.53125 0zm14.450073 0l2.59375 -12.40625l1.53125 0l-0.921875 4.4375q0.71875 -0.671875 1.3125 -0.9375q0.59375 -0.28125 1.234375 -0.28125q1.265625 0 2.09375 0.9375q0.84375 0.9375 0.84375 2.734375q0 1.1875 -0.34375 2.1875q-0.328125 0.984375 -0.828125 1.65625q-0.5 0.671875 -1.03125 1.078125q-0.53125 0.40625 -1.09375 0.59375q-0.546875 0.203125 -1.0625 0.203125q-0.890625 0 -1.578125 -0.46875q-0.671875 -0.46875 -1.046875 -1.4375l-0.359375 1.703125l-1.34375 0zm2.265625 -3.6875l-0.015625 0.28125q0 1.15625 0.546875 1.765625q0.5625 0.59375 1.375 0.59375q0.8125 0 1.484375 -0.5625q0.671875 -0.5625 1.09375 -1.75q0.4375 -1.203125 0.4375 -2.203125q0 -1.140625 -0.546875 -1.765625q-0.546875 -0.625 -1.34375 -0.625q-0.828125 0 -1.53125 0.640625q-0.6875 0.640625 -1.15625 1.96875q-0.34375 0.984375 -0.34375 1.65625zm13.96521 0.640625l1.5 0.140625q-0.328125 1.109375 -1.484375 2.109375q-1.15625 1.0 -2.75 1.0q-1.0 0 -1.84375 -0.453125q-0.828125 -0.46875 -1.265625 -1.34375q-0.4375 -0.890625 -0.4375 -2.015625q0 -1.46875 0.6875 -2.84375q0.6875 -1.390625 1.765625 -2.0625q1.078125 -0.671875 2.34375 -0.671875q1.609375 0 2.5625 1.0q0.96875 1.0 0.96875 2.71875q0 0.65625 -0.125 1.359375l-6.609375 0q-0.046875 0.265625 -0.046875 0.46875q0 1.265625 0.578125 1.9375q0.59375 0.65625 1.421875 0.65625q0.796875 0 1.546875 -0.515625q0.765625 -0.515625 1.1875 -1.484375zm-4.453125 -2.234375l5.046875 0q0.015625 -0.234375 0.015625 -0.34375q0 -1.140625 -0.578125 -1.75q-0.578125 -0.625 -1.484375 -0.625q-0.984375 0 -1.796875 0.6875q-0.796875 0.671875 -1.203125 2.03125zm13.55896 3.984375q-1.3125 1.5 -2.75 1.5q-1.28125 0 -2.140625 -0.9375q-0.84375 -0.953125 -0.84375 -2.75q0 -1.640625 0.671875 -2.984375q0.6875 -1.359375 1.6875 -2.03125q1.015625 -0.6875 2.03125 -0.6875q1.671875 0 2.53125 1.609375l1.015625 -4.828125l1.515625 0l-2.578125 12.40625l-1.421875 0l0.28125 -1.296875zm-4.203125 -2.46875q0 0.9375 0.1875 1.484375q0.1875 0.53125 0.625 0.890625q0.453125 0.359375 1.078125 0.359375q1.046875 0 1.890625 -1.078125q1.140625 -1.4375 1.140625 -3.546875q0 -1.0625 -0.5625 -1.65625q-0.5625 -0.609375 -1.40625 -0.609375q-0.546875 0 -1.0 0.25q-0.453125 0.234375 -0.90625 0.828125q-0.4375 0.578125 -0.75 1.484375q-0.296875 0.90625 -0.296875 1.59375z" fill-rule="nonzero"/><path fill="#000000" fill-opacity="0.0" d="m239.33333 197.82152l104.18898 0l0 40.409454l-104.18898 0z" fill-rule="evenodd"/><path fill="#000000" d="m255.5052 220.41464l1.5000153 0.140625q-0.328125 1.109375 -1.4843903 2.109375q-1.15625 1.0 -2.75 1.0q-1.0 0 -1.84375 -0.453125q-0.828125 -0.46875 -1.265625 -1.34375q-0.4375 -0.890625 -0.4375 -2.015625q0 -1.46875 0.6875 -2.84375q0.6875 -1.390625 1.765625 -2.0625q1.078125 -0.671875 2.34375 -0.671875q1.609375 0 2.5625153 1.0q0.96875 1.0 0.96875 2.71875q0 0.65625 -0.125 1.359375l-6.6093903 0q-0.046875 0.265625 -0.046875 0.46875q0 1.265625 0.578125 1.9375q0.59375 0.65625 1.421875 0.65625q0.796875 0 1.546875 -0.515625q0.765625 -0.515625 1.1875 -1.484375zm-4.453125 -2.234375l5.0468903 0q0.015625 -0.234375 0.015625 -0.34375q0 -1.140625 -0.57814026 -1.75q-0.578125 -0.625 -1.484375 -0.625q-0.984375 0 -1.796875 0.6875q-0.796875 0.671875 -1.203125 2.03125zm7.48085 5.28125l1.875 -8.984375l1.546875 0l-0.328125 1.484375q0.859375 -0.96875 1.53125 -1.328125q0.671875 -0.359375 1.46875 -0.359375q0.828125 0 1.390625 0.453125q0.5625 0.4375 0.75 1.234375q0.671875 -0.84375 1.421875 -1.265625q0.765625 -0.421875 1.609375 -0.421875q1.125 0 1.6875 0.53125q0.5625 0.53125 0.5625 1.5q0 0.40625 -0.1875 1.375l-1.21875 5.78125l-1.53125 0l1.234375 -5.9375q0.171875 -0.734375 0.171875 -1.046875q0 -0.4375 -0.28125 -0.6875q-0.28125 -0.25 -0.796875 -0.25q-0.6875 0 -1.40625 0.421875q-0.703125 0.40625 -1.09375 1.078125q-0.390625 0.671875 -0.6875 2.0625l-0.90625 4.359375l-1.53125 0l1.265625 -6.0625q0.140625 -0.625 0.140625 -0.890625q0 -0.4375 -0.28125 -0.703125q-0.28125 -0.265625 -0.71875 -0.265625q-0.65625 0 -1.375 0.421875q-0.703125 0.40625 -1.15625 1.140625q-0.4375 0.734375 -0.734375 2.109375l-0.890625 4.25l-1.53125 0zm14.450073 0l2.59375 -12.40625l1.53125 0l-0.921875 4.4375q0.71875 -0.671875 1.3125 -0.9375q0.59375 -0.28125 1.234375 -0.28125q1.265625 0 2.09375 0.9375q0.84375 0.9375 0.84375 2.734375q0 1.1875 -0.34375 2.1875q-0.328125 0.984375 -0.828125 1.65625q-0.5 0.671875 -1.03125 1.078125q-0.53125 0.40625 -1.09375 0.59375q-0.546875 0.203125 -1.0625 0.203125q-0.890625 0 -1.578125 -0.46875q-0.671875 -0.46875 -1.046875 -1.4375l-0.359375 1.703125l-1.34375 0zm2.265625 -3.6875l-0.015625 0.28125q0 1.15625 0.546875 1.765625q0.5625 0.59375 1.375 0.59375q0.8125 0 1.484375 -0.5625q0.671875 -0.5625 1.09375 -1.75q0.4375 -1.203125 0.4375 -2.203125q0 -1.140625 -0.546875 -1.765625q-0.546875 -0.625 -1.34375 -0.625q-0.828125 0 -1.53125 0.640625q-0.6875 0.640625 -1.15625 1.96875q-0.34375 0.984375 -0.34375 1.65625zm13.96521 0.640625l1.5 0.140625q-0.328125 1.109375 -1.484375 2.109375q-1.15625 1.0 -2.75 1.0q-1.0 0 -1.84375 -0.453125q-0.828125 -0.46875 -1.265625 -1.34375q-0.4375 -0.890625 -0.4375 -2.015625q0 -1.46875 0.6875 -2.84375q0.6875 -1.390625 1.765625 -2.0625q1.078125 -0.671875 2.34375 -0.671875q1.609375 0 2.5625 1.0q0.96875 1.0 0.96875 2.71875q0 0.65625 -0.125 1.359375l-6.609375 0q-0.046875 0.265625 -0.046875 0.46875q0 1.265625 0.578125 1.9375q0.59375 0.65625 1.421875 0.65625q0.796875 0 1.546875 -0.515625q0.765625 -0.515625 1.1875 -1.484375zm-4.453125 -2.234375l5.046875 0q0.015625 -0.234375 0.015625 -0.34375q0 -1.140625 -0.578125 -1.75q-0.578125 -0.625 -1.484375 -0.625q-0.984375 0 -1.796875 0.6875q-0.796875 0.671875 -1.203125 2.03125zm13.55896 3.984375q-1.3125 1.5 -2.75 1.5q-1.28125 0 -2.140625 -0.9375q-0.84375 -0.953125 -0.84375 -2.75q0 -1.640625 0.671875 -2.984375q0.6875 -1.359375 1.6875 -2.03125q1.015625 -0.6875 2.03125 -0.6875q1.671875 0 2.53125 1.609375l1.015625 -4.828125l1.515625 0l-2.578125 12.40625l-1.421875 0l0.28125 -1.296875zm-4.203125 -2.46875q0 0.9375 0.1875 1.484375q0.1875 0.53125 0.625 0.890625q0.453125 0.359375 1.078125 0.359375q1.046875 0 1.890625 -1.078125q1.140625 -1.4375 1.140625 -3.546875q0 -1.0625 -0.5625 -1.65625q-0.5625 -0.609375 -1.40625 -0.609375q-0.546875 0 -1.0 0.25q-0.453125 0.234375 -0.90625 0.828125q-0.4375 0.578125 -0.75 1.484375q-0.296875 0.90625 -0.296875 1.59375z" fill-rule="nonzero"/><path fill="#000000" fill-opacity="0.0" d="m755.95276 197.82152l146.92914 0l0 40.409454l-146.92914 0z" fill-rule="evenodd"/><path fill="#000000" d="m764.7809 226.89902l2.59375 -12.421875l1.40625 0l-0.25 1.25q0.78125 -0.8125 1.390625 -1.125q0.625 -0.328125 1.328125 -0.328125q1.28125 0 2.125 0.9375q0.84375 0.9375 0.84375 2.671875q0 1.40625 -0.46875 2.5625q-0.453125 1.15625 -1.140625 1.859375q-0.671875 0.703125 -1.375 1.03125q-0.6875 0.328125 -1.40625 0.328125q-1.625 0 -2.5 -1.640625l-1.015625 4.875l-1.53125 0zm3.015625 -7.109375q0 1.0 0.15625 1.390625q0.203125 0.5625 0.6875 0.90625q0.484375 0.328125 1.125 0.328125q1.3125 0 2.125 -1.484375q0.8125 -1.484375 0.8125 -3.03125q0 -1.140625 -0.546875 -1.765625q-0.546875 -0.625 -1.359375 -0.625q-0.578125 0 -1.078125 0.3125q-0.5 0.3125 -0.9375 0.921875q-0.421875 0.609375 -0.703125 1.5q-0.28125 0.890625 -0.28125 1.546875zm13.43396 2.5625q-0.796875 0.671875 -1.546875 1.0q-0.734375 0.3125 -1.5625 0.3125q-1.25 0 -2.015625 -0.734375q-0.75 -0.734375 -0.75 -1.875q0 -0.75 0.34375 -1.328125q0.34375 -0.578125 0.90625 -0.921875q0.5625 -0.359375 1.390625 -0.515625q0.515625 -0.09375 1.953125 -0.15625q1.4375 -0.0625 2.0625 -0.3125q0.1875 -0.625 0.1875 -1.03125q0 -0.53125 -0.390625 -0.84375q-0.53125 -0.421875 -1.5625 -0.421875q-0.953125 0 -1.578125 0.4375q-0.609375 0.421875 -0.890625 1.203125l-1.546875 -0.140625q0.46875 -1.328125 1.5 -2.03125q1.03125 -0.71875 2.59375 -0.71875q1.671875 0 2.640625 0.796875q0.75 0.59375 0.75 1.53125q0 0.71875 -0.21875 1.671875l-0.5 2.234375q-0.234375 1.0625 -0.234375 1.734375q0 0.421875 0.1875 1.21875l-1.546875 0q-0.125 -0.4375 -0.171875 -1.109375zm0.5625 -3.4375q-0.328125 0.125 -0.703125 0.1875q-0.359375 0.0625 -1.21875 0.140625q-1.34375 0.125 -1.890625 0.3125q-0.546875 0.171875 -0.828125 0.578125q-0.28125 0.390625 -0.28125 0.875q0 0.640625 0.4375 1.0625q0.453125 0.40625 1.28125 0.40625q0.75 0 1.453125 -0.390625q0.703125 -0.40625 1.109375 -1.125q0.40625 -0.71875 0.640625 -2.046875zm6.59021 3.296875l-0.25 1.265625q-0.5625 0.140625 -1.078125 0.140625q-0.90625 0 -1.453125 -0.453125q-0.40625 -0.34375 -0.40625 -0.921875q0 -0.296875 0.21875 -1.359375l1.09375 -5.21875l-1.203125 0l0.234375 -1.1875l1.21875 0l0.46875 -2.203125l1.75 -1.0625l-0.6875 3.265625l1.5 0l-0.25 1.1875l-1.5 0l-1.03125 4.96875q-0.203125 0.9375 -0.203125 1.125q0 0.265625 0.15625 0.421875q0.15625 0.140625 0.515625 0.140625q0.5 0 0.90625 -0.109375zm1.236206 1.25l2.59375 -12.40625l1.53125 0l-1.0 4.765625q0.859375 -0.828125 1.59375 -1.1875q0.734375 -0.359375 1.515625 -0.359375q1.109375 0 1.71875 0.59375q0.625 0.578125 0.625 1.546875q0 0.46875 -0.265625 1.734375l-1.109375 5.3125l-1.53125 0l1.140625 -5.4375q0.25 -1.1875 0.25 -1.484375q0 -0.453125 -0.3125 -0.71875q-0.296875 -0.28125 -0.875 -0.28125q-0.828125 0 -1.578125 0.4375q-0.75 0.421875 -1.1875 1.1875q-0.421875 0.75 -0.78125 2.4375l-0.796875 3.859375l-1.53125 0zm15.46698 3.640625l0 -16.25l1.328125 0l0 16.25l-1.328125 0zm4.5012817 0l0 -16.25l1.328125 0l0 16.25l-1.328125 0zm14.503052 -6.921875l1.53125 0.171875q-0.578125 1.671875 -1.640625 2.5q-1.0625 0.8125 -2.421875 0.8125q-1.453125 0 -2.375 -0.9375q-0.90625 -0.953125 -0.90625 -2.65625q0 -1.46875 0.578125 -2.890625q0.59375 -1.421875 1.671875 -2.15625q1.09375 -0.75 2.5 -0.75q1.4375 0 2.28125 0.8125q0.84375 0.8125 0.84375 2.171875l-1.5 0.09375q-0.015625 -0.859375 -0.5 -1.328125q-0.484375 -0.484375 -1.28125 -0.484375q-0.921875 0 -1.59375 0.578125q-0.671875 0.578125 -1.0625 1.78125q-0.390625 1.1875 -0.390625 2.28125q0 1.15625 0.5 1.734375q0.515625 0.5625 1.265625 0.5625q0.75 0 1.421875 -0.5625q0.6875 -0.5625 1.078125 -1.734375zm2.3359375 3.28125l2.59375 -12.40625l1.53125 0l-2.59375 12.40625l-1.53125 0zm6.1466675 -10.671875l0.359375 -1.734375l1.53125 0l-0.375 1.734375l-1.515625 0zm-2.234375 10.671875l1.875 -8.984375l1.53125 0l-1.875 8.984375l-1.53125 0z" fill-rule="nonzero"/></g></svg>