<svg width="2631" height="1430" xmlns="http://www.w3.org/2000/svg" xmlns:xlink="http://www.w3.org/1999/xlink" xml:space="preserve" overflow="hidden"><g transform="translate(-476 -302)"><g><path d="M479.5 1428.67C479.5 1395.44 506.438 1368.5 539.668 1368.5L999.332 1368.5C1032.56 1368.5 1059.5 1395.44 1059.5 1428.67L1059.5 1669.33C1059.5 1702.56 1032.56 1729.5 999.332 1729.5L539.668 1729.5C506.438 1729.5 479.5 1702.56 479.5 1669.33Z" stroke="#595959" stroke-width="3.4375" stroke-linecap="butt" stroke-linejoin="round" stroke-miterlimit="10" stroke-opacity="1" fill="#EEEEEE" fill-rule="evenodd" fill-opacity="1"/><text fill="#000000" fill-opacity="1" font-family="Arial,Arial_MSFontService,sans-serif" font-style="normal" font-variant="normal" font-weight="700" font-stretch="normal" font-size="64" text-anchor="start" direction="ltr" writing-mode="lr-tb" unicode-bidi="normal" text-decoration="none" transform="matrix(1 0 0 1 600.554 1534)">Kata Agent</text><text fill="#000000" fill-opacity="1" font-family="Arial,Arial_MSFontService,sans-serif" font-style="normal" font-variant="normal" font-weight="700" font-stretch="normal" font-size="64" text-anchor="start" direction="ltr" writing-mode="lr-tb" unicode-bidi="normal" text-decoration="none" transform="matrix(1 0 0 1 598.835 1611)">policy.rego</text><path d="M1351.5 897.668C1351.5 864.438 1378.44 837.5 1411.67 837.5L1871.33 837.5C1904.56 837.5 1931.5 864.438 1931.5 897.668L1931.5 1138.33C1931.5 1171.56 1904.56 1198.5 1871.33 1198.5L1411.67 1198.5C1378.44 1198.5 1351.5 1171.56 1351.5 1138.33Z" stroke="#595959" stroke-width="3.4375" stroke-linecap="butt" stroke-linejoin="round" stroke-miterlimit="10" stroke-opacity="1" fill="#EEEEEE" fill-rule="evenodd" fill-opacity="1"/><text fill="#000000" fill-opacity="1" font-family="Arial,Arial_MSFontService,sans-serif" font-style="normal" font-variant="normal" font-weight="700" font-stretch="normal" font-size="64" text-anchor="start" direction="ltr" writing-mode="lr-tb" unicode-bidi="normal" text-decoration="none" transform="matrix(1 0 0 1 1418.76 1003)">KBS Resource </text><text fill="#000000" fill-opacity="1" font-family="Arial,Arial_MSFontService,sans-serif" font-style="normal" font-variant="normal" font-weight="700" font-stretch="normal" font-size="64" text-anchor="start" direction="ltr" writing-mode="lr-tb" unicode-bidi="normal" text-decoration="none" transform="matrix(1 0 0 1 1470.9 1080)">policy.rego</text><path d="M2241.5 897.668C2241.5 864.438 2268.44 837.5 2301.67 837.5L2761.33 837.5C2794.56 837.5 2821.5 864.438 2821.5 897.668L2821.5 1138.33C2821.5 1171.56 2794.56 1198.5 2761.33 1198.5L2301.67 1198.5C2268.44 1198.5 2241.5 1171.56 2241.5 1138.33Z" stroke="#595959" stroke-width="3.4375" stroke-linecap="butt" stroke-linejoin="round" stroke-miterlimit="10" stroke-opacity="1" fill="#EEEEEE" fill-rule="evenodd" fill-opacity="1"/><text fill="#000000" fill-opacity="1" font-family="Arial,Arial_MSFontService,sans-serif" font-style="normal" font-variant="normal" font-weight="700" font-stretch="normal" font-size="64" text-anchor="start" direction="ltr" writing-mode="lr-tb" unicode-bidi="normal" text-decoration="none" transform="matrix(1 0 0 1 2364.01 964)">Attestation </text><text fill="#000000" fill-opacity="1" font-family="Arial,Arial_MSFontService,sans-serif" font-style="normal" font-variant="normal" font-weight="700" font-stretch="normal" font-size="64" text-anchor="start" direction="ltr" writing-mode="lr-tb" unicode-bidi="normal" text-decoration="none" transform="matrix(1 0 0 1 2416.72 1041)">Service </text><text fill="#000000" fill-opacity="1" font-family="Arial,Arial_MSFontService,sans-serif" font-style="normal" font-variant="normal" font-weight="700" font-stretch="normal" font-size="64" text-anchor="start" direction="ltr" writing-mode="lr-tb" unicode-bidi="normal" text-decoration="none" transform="matrix(1 0 0 1 2360.28 1118)">policy.rego</text><path d="M479.5 897.668C479.5 864.438 506.438 837.5 539.668 837.5L999.332 837.5C1032.56 837.5 1059.5 864.438 1059.5 897.668L1059.5 1138.33C1059.5 1171.56 1032.56 1198.5 999.332 1198.5L539.668 1198.5C506.438 1198.5 479.5 1171.56 479.5 1138.33Z" stroke="#595959" stroke-width="3.4375" stroke-linecap="butt" stroke-linejoin="round" stroke-miterlimit="10" stroke-opacity="1" fill="#EEEEEE" fill-rule="evenodd" fill-opacity="1"/><text fill="#000000" fill-opacity="1" font-family="Arial,Arial_MSFontService,sans-serif" font-style="normal" font-variant="normal" font-weight="400" font-stretch="normal" font-size="64" text-anchor="start" direction="ltr" writing-mode="lr-tb" unicode-bidi="normal" text-decoration="none" transform="matrix(1 0 0 1 596.83 1041)">initdata.toml</text><path d="M479.5 366.668C479.5 333.438 506.438 306.5 539.668 306.5L999.332 306.5C1032.56 306.5 1059.5 333.438 1059.5 366.668L1059.5 607.332C1059.5 640.562 1032.56 667.5 999.332 667.5L539.668 667.5C506.438 667.5 479.5 640.562 479.5 607.332Z" stroke="#595959" stroke-width="3.4375" stroke-linecap="butt" stroke-linejoin="round" stroke-miterlimit="10" stroke-opacity="1" fill="#EEEEEE" fill-rule="evenodd" fill-opacity="1"/><text fill="#000000" fill-opacity="1" font-family="Arial,Arial_MSFontService,sans-serif" font-style="normal" font-variant="normal" font-weight="400" font-stretch="normal" font-size="64" text-anchor="start" direction="ltr" writing-mode="lr-tb" unicode-bidi="normal" text-decoration="none" transform="matrix(1 0 0 1 639.512 510)">pod.yaml</text><path d="M1351.5 366.668C1351.5 333.438 1378.44 306.5 1411.67 306.5L1871.33 306.5C1904.56 306.5 1931.5 333.438 1931.5 366.668L1931.5 607.332C1931.5 640.562 1904.56 667.5 1871.33 667.5L1411.67 667.5C1378.44 667.5 1351.5 640.562 1351.5 607.332Z" stroke="#595959" stroke-width="3.4375" stroke-linecap="butt" stroke-linejoin="round" stroke-miterlimit="10" stroke-opacity="1" fill="#EEEEEE" fill-rule="evenodd" fill-opacity="1"/><text fill="#000000" fill-opacity="1" font-family="Arial,Arial_MSFontService,sans-serif" font-style="normal" font-variant="normal" font-weight="400" font-stretch="normal" font-size="64" text-anchor="start" direction="ltr" writing-mode="lr-tb" unicode-bidi="normal" text-decoration="none" transform="matrix(1 0 0 1 1475.48 510)">KBS Config</text><path d="M716.5 1266 770 1212.5 823.5 1266 796.75 1266 796.75 1355.5 743.25 1355.5 743.25 1266Z" stroke="#595959" stroke-width="3.4375" stroke-linecap="butt" stroke-linejoin="miter" stroke-miterlimit="8" stroke-opacity="1" fill="#EEEEEE" fill-rule="evenodd" fill-opacity="1"/><path d="M716.5 735 770 681.5 823.5 735 796.75 735 796.75 824.5 743.25 824.5 743.25 735Z" stroke="#595959" stroke-width="3.4375" stroke-linecap="butt" stroke-linejoin="miter" stroke-miterlimit="8" stroke-opacity="1" fill="#EEEEEE" fill-rule="evenodd" fill-opacity="1"/><path d="M1266 964.5 1319.5 1018 1266 1071.5 1266 1044.75 1102.5 1044.75 1102.5 991.25 1266 991.25Z" stroke="#595959" stroke-width="3.4375" stroke-linecap="butt" stroke-linejoin="miter" stroke-miterlimit="8" stroke-opacity="1" fill="#EEEEEE" fill-rule="evenodd" fill-opacity="1"/><text fill="#000000" fill-opacity="1" font-family="Arial,Arial_MSFontService,sans-serif" font-style="italic" font-variant="normal" font-weight="400" font-stretch="normal" font-size="60" text-anchor="start" direction="ltr" writing-mode="lr-tb" unicode-bidi="normal" text-decoration="none" transform="matrix(1 0 0 1 1114.99 948)">hash</text><path d="M2241.5 366.668C2241.5 333.438 2268.44 306.5 2301.67 306.5L2761.33 306.5C2794.56 306.5 2821.5 333.438 2821.5 366.668L2821.5 607.332C2821.5 640.562 2794.56 667.5 2761.33 667.5L2301.67 667.5C2268.44 667.5 2241.5 640.562 2241.5 607.332Z" stroke="#595959" stroke-width="3.4375" stroke-linecap="butt" stroke-linejoin="round" stroke-miterlimit="10" stroke-opacity="1" fill="#EEEEEE" fill-rule="evenodd" fill-opacity="1"/><text fill="#000000" fill-opacity="1" font-family="Arial,Arial_MSFontService,sans-serif" font-style="normal" font-variant="normal" font-weight="400" font-stretch="normal" font-size="64" text-anchor="start" direction="ltr" writing-mode="lr-tb" unicode-bidi="normal" text-decoration="none" transform="matrix(1 0 0 1 2386.35 510)">AS Config</text><path d="M1588.5 735 1642 681.5 1695.5 735 1668.75 735 1668.75 824.5 1615.25 824.5 1615.25 735Z" stroke="#595959" stroke-width="3.4375" stroke-linecap="butt" stroke-linejoin="miter" stroke-miterlimit="8" stroke-opacity="1" fill="#EEEEEE" fill-rule="evenodd" fill-opacity="1"/><path d="M2477.5 735 2531 681.5 2584.5 735 2557.75 735 2557.75 824.5 2504.25 824.5 2504.25 735Z" stroke="#595959" stroke-width="3.4375" stroke-linecap="butt" stroke-linejoin="miter" stroke-miterlimit="8" stroke-opacity="1" fill="#EEEEEE" fill-rule="evenodd" fill-opacity="1"/><text fill="#000000" fill-opacity="1" font-family="Arial,Arial_MSFontService,sans-serif" font-style="italic" font-variant="normal" font-weight="400" font-stretch="normal" font-size="60" text-anchor="start" direction="ltr" writing-mode="lr-tb" unicode-bidi="normal" text-decoration="none" transform="matrix(1 0 0 1 1727.76 771)">path || cli</text><text fill="#000000" fill-opacity="1" font-family="Arial,Arial_MSFontService,sans-serif" font-style="italic" font-variant="normal" font-weight="400" font-stretch="normal" font-size="60" text-anchor="start" direction="ltr" writing-mode="lr-tb" unicode-bidi="normal" text-decoration="none" transform="matrix(1 0 0 1 855.703 1302)">embed</text><text fill="#000000" fill-opacity="1" font-family="Arial,Arial_MSFontService,sans-serif" font-style="italic" font-variant="normal" font-weight="400" font-stretch="normal" font-size="60" text-anchor="start" direction="ltr" writing-mode="lr-tb" unicode-bidi="normal" text-decoration="none" transform="matrix(1 0 0 1 855.703 771)">embed</text><text fill="#000000" fill-opacity="1" font-family="Arial,Arial_MSFontService,sans-serif" font-style="italic" font-variant="normal" font-weight="400" font-stretch="normal" font-size="60" text-anchor="start" direction="ltr" writing-mode="lr-tb" unicode-bidi="normal" text-decoration="none" transform="matrix(1 0 0 1 2631.58 771)">path || cli</text></g></g></svg>